<svg width="24" height="24" viewBox="0 0 24 24" fill="none" xmlns="http://www.w3.org/2000/svg">
<rect width="24" height="24" rx="4" fill="#3D3D3D"/>
<path d="M10.6516 14.7633H7.2811V18.1338M13.348 9.37051H16.7185V6M7 10.0469C7.37796 9.11143 8.01077 8.30074 8.82651 7.70698C9.64225 7.11322 10.609 6.76006 11.6154 6.68793C12.6218 6.61579 13.6276 6.8274 14.5197 7.29873C15.4118 7.77007 16.1531 8.48241 16.6606 9.35442M17 14.0873C16.622 15.0227 15.9892 15.8334 15.1735 16.4272C14.3578 17.0209 13.3919 17.3736 12.3856 17.4458C11.3792 17.5179 10.3726 17.3063 9.48049 16.835C8.5884 16.3637 7.84655 15.6515 7.33903 14.7795" stroke="#A0FB3C" stroke-width="1.5" stroke-linecap="round" stroke-linejoin="round"/>
</svg>
