<svg width="224" height="12" viewBox="0 0 224 12" fill="none" xmlns="http://www.w3.org/2000/svg">
<path d="M210.932 10.816L215.428 0.751999H218.564L223.06 10.816V11.248H220.26L219.444 9.312H214.548L213.732 11.248H210.932V10.816ZM218.452 6.928L216.996 3.456L215.54 6.928H218.452Z" fill="#A0FB3C"/>
<path d="M200.8 0.751999H207.536C208.826 0.751999 209.834 1.06133 210.56 1.68C211.296 2.288 211.664 3.13067 211.664 4.208V4.368C211.664 5.44533 211.296 6.29333 210.56 6.912C209.834 7.53067 208.826 7.84 207.536 7.84H203.632V11.248H200.8V0.751999ZM207.472 5.376C207.898 5.376 208.224 5.29067 208.448 5.12C208.672 4.94933 208.784 4.69867 208.784 4.368V4.208C208.784 3.888 208.672 3.64267 208.448 3.472C208.224 3.30133 207.898 3.216 207.472 3.216H203.632V5.376H207.472Z" fill="#A0FB3C"/>
<path d="M187.447 10.816L191.943 0.751999H195.079L199.575 10.816V11.248H196.775L195.959 9.312H191.063L190.247 11.248H187.447V10.816ZM194.967 6.928L193.511 3.456L192.055 6.928H194.967Z" fill="#A0FB3C"/>
<path d="M181.666 3.28H177.778V0.751999H188.386V3.28H184.498V11.248H181.666V3.28Z" fill="#A0FB3C"/>
<path d="M166.603 10.816L171.099 0.751999H174.235L178.731 10.816V11.248H175.931L175.115 9.312H170.219L169.403 11.248H166.603V10.816ZM174.123 6.928L172.667 3.456L171.211 6.928H174.123Z" fill="#A0FB3C"/>
<path d="M155.628 0.751999H161.996C163.265 0.751999 164.247 0.997332 164.94 1.488C165.633 1.97867 165.98 2.67733 165.98 3.584V3.744C165.98 4.66133 165.612 5.376 164.876 5.888C165.345 6.13333 165.703 6.448 165.948 6.832C166.193 7.216 166.316 7.664 166.316 8.176V8.336C166.316 9.24267 165.959 9.95733 165.244 10.48C164.54 10.992 163.564 11.248 162.316 11.248H155.628V0.751999ZM162.252 8.816C163.031 8.816 163.42 8.54933 163.42 8.016V7.856C163.42 7.33333 163.031 7.072 162.252 7.072H158.46V8.816H162.252ZM161.996 4.848C162.391 4.848 162.679 4.78933 162.86 4.672C163.052 4.544 163.148 4.352 163.148 4.096V3.936C163.148 3.43467 162.764 3.184 161.996 3.184H158.46V4.848H161.996Z" fill="#A0FB3C"/>
<path d="M142.275 10.816L146.771 0.751999H149.907L154.403 10.816V11.248H151.603L150.787 9.312H145.891L145.075 11.248H142.275V10.816ZM149.795 6.928L148.339 3.456L146.883 6.928H149.795Z" fill="#A0FB3C"/>
<path d="M126.034 0.751999H132.77C134.061 0.751999 135.069 1.06133 135.794 1.68C136.53 2.288 136.898 3.13067 136.898 4.208V4.368C136.898 5.44533 136.53 6.29333 135.794 6.912C135.069 7.53067 134.061 7.84 132.77 7.84H128.866V11.248H126.034V0.751999ZM132.706 5.376C133.133 5.376 133.458 5.29067 133.682 5.12C133.906 4.94933 134.018 4.69867 134.018 4.368V4.208C134.018 3.888 133.906 3.64267 133.682 3.472C133.458 3.30133 133.133 3.216 132.706 3.216H128.866V5.376H132.706Z" fill="#A0FB3C"/>
<path d="M117.875 11.456C116.606 11.456 115.486 11.2373 114.515 10.8C113.555 10.352 112.814 9.72267 112.291 8.912C111.768 8.09067 111.507 7.14133 111.507 6.064V5.952C111.507 4.864 111.768 3.91467 112.291 3.104C112.814 2.28267 113.555 1.65333 114.515 1.216C115.486 0.767999 116.606 0.543999 117.875 0.543999C119.166 0.543999 120.291 0.767999 121.251 1.216C122.211 1.65333 122.952 2.28267 123.475 3.104C123.998 3.91467 124.259 4.864 124.259 5.952V6.064C124.259 7.152 123.998 8.10133 123.475 8.912C122.952 9.72267 122.211 10.352 121.251 10.8C120.291 11.2373 119.166 11.456 117.875 11.456ZM117.875 8.816C120.211 8.816 121.379 7.91467 121.379 6.112V5.92C121.379 5.024 121.08 4.34667 120.483 3.888C119.896 3.41867 119.027 3.184 117.875 3.184C116.744 3.184 115.88 3.41867 115.283 3.888C114.686 4.35733 114.387 5.03467 114.387 5.92V6.112C114.387 6.99733 114.68 7.66933 115.267 8.128C115.854 8.58667 116.723 8.816 117.875 8.816Z" fill="#A0FB3C"/>
<path d="M104.385 3.28H100.497V0.751999H111.105V3.28H107.217V11.248H104.385V3.28Z" fill="#A0FB3C"/>
<path d="M93.0134 7.248H91.3974V11.248H88.5654V0.751999H91.3974V4.704H92.8854L96.3254 0.751999H99.6694V1.184L95.4134 5.824L99.4134 10.816V11.248H96.1814L93.0134 7.248Z" fill="#A0FB3C"/>
<path d="M77.4729 8.72H79.9529C80.1555 8.72 80.3209 8.69867 80.4489 8.656L76.0009 1.184V0.751999H78.9289L82.0649 6.304L84.7849 0.751999H87.6969V1.184L83.7609 8.64C83.2489 9.61067 82.7155 10.288 82.1609 10.672C81.6169 11.056 80.9075 11.248 80.0329 11.248H77.4729V8.72Z" fill="#A0FB3C"/>
<path d="M64.6279 0.751999H71.3639C72.6545 0.751999 73.6625 1.06133 74.3879 1.68C75.1239 2.288 75.4919 3.13067 75.4919 4.208V4.368C75.4919 5.44533 75.1239 6.29333 74.3879 6.912C73.6625 7.53067 72.6545 7.84 71.3639 7.84H67.4599V11.248H64.6279V0.751999ZM71.2999 5.376C71.7265 5.376 72.0519 5.29067 72.2759 5.12C72.4999 4.94933 72.6119 4.69867 72.6119 4.368V4.208C72.6119 3.888 72.4999 3.64267 72.2759 3.472C72.0519 3.30133 71.7265 3.216 71.2999 3.216H67.4599V5.376H71.2999Z" fill="#A0FB3C"/>
<path d="M56.5414 3.28H52.6534V0.751999H63.2614V3.28H59.3734V11.248H56.5414V3.28Z" fill="#A0FB3C"/>
<path d="M46.0017 11.456C44.7111 11.456 43.5751 11.2373 42.5937 10.8C41.6231 10.352 40.8711 9.72267 40.3377 8.912C39.8151 8.10133 39.5537 7.152 39.5537 6.064V5.952C39.5537 4.864 39.8151 3.91467 40.3377 3.104C40.8711 2.28267 41.6231 1.65333 42.5937 1.216C43.5751 0.767999 44.7111 0.543999 46.0017 0.543999C47.2071 0.543999 48.2897 0.741332 49.2497 1.136C50.2097 1.53067 50.9564 2.07467 51.4897 2.768C52.0337 3.46133 52.3057 4.24533 52.3057 5.12V5.248H49.4097V5.12C49.4097 4.53333 49.0951 4.064 48.4657 3.712C47.8471 3.36 47.0257 3.184 46.0017 3.184C43.6231 3.184 42.4337 4.096 42.4337 5.92V6.112C42.4337 7.01867 42.7271 7.696 43.3137 8.144C43.9004 8.592 44.7964 8.816 46.0017 8.816C47.0577 8.816 47.8897 8.64533 48.4977 8.304C49.1057 7.96267 49.4097 7.49333 49.4097 6.896V6.784H52.3057V6.896C52.3057 7.77067 52.0337 8.55467 51.4897 9.248C50.9564 9.94133 50.2097 10.4853 49.2497 10.88C48.2897 11.264 47.2071 11.456 46.0017 11.456Z" fill="#A0FB3C"/>
<path d="M26.9404 0.751999H29.7724V4.736H34.9404V0.751999H37.7724V11.248H34.9404V7.264H29.7724V11.248H26.9404V0.751999Z" fill="#A0FB3C"/>
<path d="M18.7811 11.456C17.5118 11.456 16.3918 11.2373 15.4211 10.8C14.4611 10.352 13.7198 9.72267 13.1971 8.912C12.6744 8.09067 12.4131 7.14133 12.4131 6.064V5.952C12.4131 4.864 12.6744 3.91467 13.1971 3.104C13.7198 2.28267 14.4611 1.65333 15.4211 1.216C16.3918 0.767999 17.5118 0.543999 18.7811 0.543999C20.0718 0.543999 21.1971 0.767999 22.1571 1.216C23.1171 1.65333 23.8585 2.28267 24.3811 3.104C24.9038 3.91467 25.1651 4.864 25.1651 5.952V6.064C25.1651 7.152 24.9038 8.10133 24.3811 8.912C23.8585 9.72267 23.1171 10.352 22.1571 10.8C21.1971 11.2373 20.0718 11.456 18.7811 11.456ZM18.7811 8.816C21.1171 8.816 22.2851 7.91467 22.2851 6.112V5.92C22.2851 5.024 21.9865 4.34667 21.3891 3.888C20.8025 3.41867 19.9331 3.184 18.7811 3.184C17.6504 3.184 16.7864 3.41867 16.1891 3.888C15.5918 4.35733 15.2931 5.03467 15.2931 5.92V6.112C15.2931 6.99733 15.5864 7.66933 16.1731 8.128C16.7598 8.58667 17.6291 8.816 18.7811 8.816Z" fill="#A0FB3C"/>
<path d="M5.38837 7.248H3.77237V11.248H0.940369V0.751999H3.77237V4.704H5.26037L8.70037 0.751999H12.0444V1.184L7.78837 5.824L11.7884 10.816V11.248H8.55637L5.38837 7.248Z" fill="#A0FB3C"/>
</svg>
