<svg width="128" height="40" viewBox="0 0 128 40" fill="none" xmlns="http://www.w3.org/2000/svg">
<rect width="128" height="40" rx="20" transform="matrix(-1 0 0 1 128 0)" fill="black"/>
<path d="M65.0998 30.02H63.8298V24.06H61.4099V23.02H67.5098V24.06H65.0998V30.02Z" fill="#3D3D3D"/>
<path d="M55.4541 30.02H54.1841V23.02H55.4541V25.89H59.0141V23.02H60.2841V30.02H59.0141V26.93H55.4541V30.02Z" fill="#3D3D3D"/>
<path d="M53.0936 30.02H51.7936L51.1936 28.33H48.0436L47.4336 30.02H46.2136L48.7736 23.02H50.5336L53.0936 30.02ZM49.6136 23.92L48.4036 27.3H50.8236L49.6136 23.92Z" fill="#3D3D3D"/>
<path d="M45.1193 30.02H43.8693V24.28L40.6393 30.02H38.9693V23.02H40.2193V28.78L43.4493 23.02H45.1193V30.02Z" fill="#3D3D3D"/>
<path d="M33.0616 30.02H31.7916V23.02H35.4216C36.0949 23.02 36.6282 23.2333 37.0216 23.66C37.4149 24.08 37.6116 24.6533 37.6116 25.38C37.6116 26.1 37.4082 26.67 37.0016 27.09C36.6016 27.5033 36.0482 27.71 35.3416 27.71H33.0616V30.02ZM36.3016 25.38C36.3016 24.94 36.2016 24.6067 36.0016 24.38C35.8016 24.1533 35.5049 24.04 35.1116 24.04H33.0616V26.7H35.1116C35.4982 26.7 35.7916 26.59 35.9916 26.37C36.1982 26.1433 36.3016 25.8133 36.3016 25.38Z" fill="#3D3D3D"/>
<path d="M30.701 30.02H29.401L28.801 28.33H25.651L25.041 30.02H23.821L26.381 23.02H28.141L30.701 30.02ZM27.221 23.92L26.011 27.3H28.431L27.221 23.92Z" fill="#3D3D3D"/>
<path d="M21.0075 30.02H17.3775V23.02H20.8875C21.5542 23.02 22.0608 23.1733 22.4075 23.48C22.7608 23.78 22.9375 24.2167 22.9375 24.79C22.9375 25.1967 22.8442 25.5367 22.6575 25.81C22.4775 26.0767 22.2042 26.27 21.8375 26.39C22.2908 26.4967 22.6308 26.6933 22.8575 26.98C23.0842 27.2667 23.1975 27.6467 23.1975 28.12C23.1975 28.74 23.0108 29.2133 22.6375 29.54C22.2642 29.86 21.7208 30.02 21.0075 30.02ZM21.6975 25.01C21.6975 24.6833 21.6142 24.4333 21.4475 24.26C21.2808 24.0867 21.0442 24 20.7375 24H18.6175V25.99H20.7875C21.0808 25.99 21.3042 25.9067 21.4575 25.74C21.6175 25.5733 21.6975 25.33 21.6975 25.01ZM21.8975 28.04C21.8975 27.6933 21.8108 27.43 21.6375 27.25C21.4642 27.0633 21.2142 26.97 20.8875 26.97H18.6175V29.04H20.8475C21.1875 29.04 21.4475 28.9567 21.6275 28.79C21.8075 28.6167 21.8975 28.3667 21.8975 28.04Z" fill="#3D3D3D"/>
<path d="M65.4002 10.1V9.98H66.3602C66.3602 10.5467 66.2136 10.9533 65.9202 11.2C65.6336 11.4467 65.1636 11.57 64.5102 11.57C63.8502 11.57 63.3769 11.4467 63.0902 11.2C62.8036 10.9533 62.6602 10.5467 62.6602 9.98H63.6202V10.1C63.6202 10.3467 63.6902 10.53 63.8302 10.65C63.9769 10.7633 64.2036 10.82 64.5102 10.82C64.8169 10.82 65.0402 10.7633 65.1802 10.65C65.3269 10.53 65.4002 10.3467 65.4002 10.1ZM67.5802 19.02H66.3302V13.28L63.1002 19.02H61.4302V12.02H62.6802V17.78L65.9102 12.02H67.5802V19.02Z" fill="#3D3D3D"/>
<path d="M59.4451 19.01H58.1751V12.01H59.4451V19.01ZM55.0851 19.02H51.6451V12.02H52.9151V14.4H55.0851C55.7717 14.4 56.3017 14.6033 56.6751 15.01C57.0484 15.4167 57.2351 15.9933 57.2351 16.74C57.2351 17.4667 57.0484 18.03 56.6751 18.43C56.3017 18.8233 55.7717 19.02 55.0851 19.02ZM55.9951 16.73C55.9951 16.3033 55.9017 15.9833 55.7151 15.77C55.5284 15.55 55.2517 15.44 54.8851 15.44H52.9151V17.98H54.8851C55.2517 17.98 55.5284 17.8767 55.7151 17.67C55.9017 17.4567 55.9951 17.1433 55.9951 16.73Z" fill="#3D3D3D"/>
<path d="M43.1965 19.05V17.97H43.5065C43.8531 17.97 44.0931 17.79 44.2265 17.43C44.3598 17.07 44.4331 16.41 44.4465 15.45L44.5165 12.02H49.6465V19.02H48.3965V13.06H45.7265L45.6865 15.34C45.6798 15.86 45.6531 16.3167 45.6065 16.71C45.5665 17.0967 45.5065 17.4333 45.4265 17.72C45.2931 18.1867 45.0931 18.5267 44.8265 18.74C44.5598 18.9533 44.1898 19.06 43.7165 19.06C43.5698 19.06 43.4531 19.0567 43.3665 19.05C43.2798 19.05 43.2231 19.05 43.1965 19.05Z" fill="#3D3D3D"/>
<path d="M40.7737 19.02H39.5037V13.06H37.0837V12.02H43.1837V13.06H40.7737V19.02Z" fill="#3D3D3D"/>
<path d="M36.5216 19.02H31.3716V12.02H36.4216V13.06H32.6416V14.93H36.2816V15.94H32.6416V17.98H36.5216V19.02Z" fill="#3D3D3D"/>
<path d="M27.6481 19.02H24.0181V12.02H27.5281C28.1948 12.02 28.7015 12.1733 29.0481 12.48C29.4015 12.78 29.5781 13.2167 29.5781 13.79C29.5781 14.1967 29.4848 14.5367 29.2981 14.81C29.1181 15.0767 28.8448 15.27 28.4781 15.39C28.9315 15.4967 29.2715 15.6933 29.4981 15.98C29.7248 16.2667 29.8381 16.6467 29.8381 17.12C29.8381 17.74 29.6515 18.2133 29.2781 18.54C28.9048 18.86 28.3615 19.02 27.6481 19.02ZM28.3381 14.01C28.3381 13.6833 28.2548 13.4333 28.0881 13.26C27.9215 13.0867 27.6848 13 27.3781 13H25.2581V14.99H27.4281C27.7215 14.99 27.9448 14.9067 28.0981 14.74C28.2581 14.5733 28.3381 14.33 28.3381 14.01ZM28.5381 17.04C28.5381 16.6933 28.4515 16.43 28.2781 16.25C28.1048 16.0633 27.8548 15.97 27.5281 15.97H25.2581V18.04H27.4881C27.8281 18.04 28.0881 17.9567 28.2681 17.79C28.4481 17.6167 28.5381 17.3667 28.5381 17.04Z" fill="#3D3D3D"/>
<path d="M19.38 19.13C18.2667 19.13 17.4233 18.8267 16.85 18.22C16.2833 17.6133 16 16.7167 16 15.53C16 14.3433 16.2833 13.4433 16.85 12.83C17.4233 12.2167 18.2667 11.91 19.38 11.91C20.36 11.91 21.12 12.1433 21.66 12.61C22.2 13.0767 22.4933 13.76 22.54 14.66H21.25C21.2233 14.0867 21.0533 13.6567 20.74 13.37C20.4267 13.0833 19.9733 12.94 19.38 12.94C18.6867 12.94 18.1667 13.1533 17.82 13.58C17.48 14.0067 17.31 14.6567 17.31 15.53C17.31 16.3967 17.48 17.0433 17.82 17.47C18.1667 17.89 18.6867 18.1 19.38 18.1C19.9867 18.1 20.4467 17.9533 20.76 17.66C21.08 17.3667 21.25 16.93 21.27 16.35H22.56C22.5267 17.25 22.2367 17.94 21.69 18.42C21.15 18.8933 20.38 19.13 19.38 19.13Z" fill="#3D3D3D"/>
<circle cx="12" cy="12" r="12" transform="matrix(-1 0 0 1 120 8)" fill="white"/>
<circle cx="16" cy="16" r="15" transform="matrix(-1 0 0 1 124 4)" stroke="#3D3D3D" stroke-width="2"/>
<path d="M83 21.5H76M76 21.5L79.2746 18M76 21.5L79.2746 25" stroke="#3D3D3D" stroke-width="1.5"/>
</svg>
