<svg width="169" height="41" viewBox="0 0 169 41" fill="none" xmlns="http://www.w3.org/2000/svg">
<rect x="0.312691" width="168.375" height="40.664" rx="20.332" fill="#A0FB3C"/>
<path d="M139.227 24.532H137.703V16.132H142.059C142.867 16.132 143.507 16.388 143.979 16.9C144.451 17.404 144.687 18.092 144.687 18.964C144.687 19.828 144.443 20.512 143.955 21.016C143.475 21.512 142.811 21.76 141.963 21.76H139.227V24.532ZM143.115 18.964C143.115 18.436 142.995 18.036 142.755 17.764C142.515 17.492 142.159 17.356 141.687 17.356H139.227V20.548H141.687C142.151 20.548 142.503 20.416 142.743 20.152C142.991 19.88 143.115 19.484 143.115 18.964Z" fill="black"/>
<path d="M136.395 24.532H134.835L134.115 22.504H130.335L129.603 24.532H128.139L131.211 16.132H133.323L136.395 24.532ZM132.219 17.212L130.767 21.268H133.671L132.219 17.212Z" fill="black"/>
<path d="M125.841 24.532H124.317V17.38H121.413V16.132H128.733V17.38H125.841V24.532Z" fill="black"/>
<path d="M122.016 24.532H120.456L119.736 22.504H115.956L115.224 24.532H113.76L116.832 16.132H118.944L122.016 24.532ZM117.84 17.212L116.388 21.268H119.292L117.84 17.212Z" fill="black"/>
<path d="M110.384 24.532H106.028V16.132H110.24C111.04 16.132 111.648 16.316 112.064 16.684C112.488 17.044 112.7 17.568 112.7 18.256C112.7 18.744 112.588 19.152 112.364 19.48C112.148 19.8 111.82 20.032 111.38 20.176C111.924 20.304 112.332 20.54 112.604 20.884C112.876 21.228 113.012 21.684 113.012 22.252C113.012 22.996 112.788 23.564 112.34 23.956C111.892 24.34 111.24 24.532 110.384 24.532ZM111.212 18.52C111.212 18.128 111.112 17.828 110.912 17.62C110.712 17.412 110.428 17.308 110.06 17.308H107.516V19.696H110.12C110.472 19.696 110.74 19.596 110.924 19.396C111.116 19.196 111.212 18.904 111.212 18.52ZM111.452 22.156C111.452 21.74 111.348 21.424 111.14 21.208C110.932 20.984 110.632 20.872 110.24 20.872H107.516V23.356H110.192C110.6 23.356 110.912 23.256 111.128 23.056C111.344 22.848 111.452 22.548 111.452 22.156Z" fill="black"/>
<path d="M104.719 24.532H103.159L102.439 22.504H98.6589L97.9269 24.532H96.4629L99.5349 16.132H101.647L104.719 24.532ZM100.543 17.212L99.0909 21.268H101.995L100.543 17.212Z" fill="black"/>
<path d="M90.6907 24.532H86.5627V16.132H88.0867V18.988H90.6907C91.5147 18.988 92.1507 19.232 92.5987 19.72C93.0467 20.208 93.2707 20.9 93.2707 21.796C93.2707 22.668 93.0467 23.344 92.5987 23.824C92.1507 24.296 91.5147 24.532 90.6907 24.532ZM91.7827 21.784C91.7827 21.272 91.6707 20.888 91.4467 20.632C91.2227 20.368 90.8907 20.236 90.4507 20.236H88.0867V23.284H90.4507C90.8907 23.284 91.2227 23.16 91.4467 22.912C91.6707 22.656 91.7827 22.28 91.7827 21.784Z" fill="black"/>
<path d="M82.3061 24.532H80.7821V17.38H77.8781V16.132H85.1981V17.38H82.3061V24.532Z" fill="black"/>
<path d="M76.5169 24.532H75.0169V17.644L71.1409 24.532H69.1369V16.132H70.6369V23.044L74.5129 16.132H76.5169V24.532Z" fill="black"/>
<path d="M62.8991 21.58C61.9151 21.58 61.1871 21.38 60.7151 20.98C60.2431 20.58 60.0071 19.968 60.0071 19.144V16.132H61.5311V18.796C61.5311 19.332 61.6671 19.72 61.9391 19.96C62.2111 20.2 62.6551 20.32 63.2711 20.32C63.6151 20.32 63.9511 20.284 64.2791 20.212C64.6071 20.132 64.9191 20.016 65.2151 19.864V16.132H66.7391V24.532H65.2151V21.124C64.8951 21.276 64.5391 21.392 64.1471 21.472C63.7551 21.544 63.3391 21.58 62.8991 21.58Z" fill="black"/>
<path d="M55.3246 24.532H53.7286L54.7006 22.456L51.5086 16.132H53.1766L55.5286 20.824L57.6886 16.132H59.2606L55.3246 24.532Z" fill="black"/>
<path d="M42.5103 24.568V23.272H42.8823C43.2983 23.272 43.5863 23.056 43.7463 22.624C43.9063 22.192 43.9943 21.4 44.0103 20.248L44.0943 16.132H50.2503V24.532H48.7503V17.38H45.5463L45.4983 20.116C45.4903 20.74 45.4583 21.288 45.4023 21.76C45.3543 22.224 45.2823 22.628 45.1863 22.972C45.0263 23.532 44.7863 23.94 44.4663 24.196C44.1463 24.452 43.7023 24.58 43.1343 24.58C42.9583 24.58 42.8183 24.576 42.7143 24.568C42.6103 24.568 42.5423 24.568 42.5103 24.568Z" fill="black"/>
<path d="M41.7226 20.332C41.7226 21.748 41.3666 22.824 40.6546 23.56C39.9506 24.296 38.9146 24.664 37.5466 24.664C36.1786 24.664 35.1386 24.3 34.4266 23.572C33.7226 22.836 33.3706 21.76 33.3706 20.344C33.3706 18.928 33.7226 17.852 34.4266 17.116C35.1386 16.372 36.1786 16 37.5466 16C38.9146 16 39.9506 16.368 40.6546 17.104C41.3666 17.84 41.7226 18.916 41.7226 20.332ZM34.9426 20.344C34.9426 21.376 35.1586 22.148 35.5906 22.66C36.0226 23.172 36.6746 23.428 37.5466 23.428C38.4266 23.428 39.0826 23.172 39.5146 22.66C39.9466 22.148 40.1626 21.372 40.1626 20.332C40.1626 19.292 39.9466 18.516 39.5146 18.004C39.0826 17.492 38.4266 17.236 37.5466 17.236C36.6746 17.236 36.0226 17.492 35.5906 18.004C35.1586 18.516 34.9426 19.296 34.9426 20.344Z" fill="black"/>
<path d="M25.8367 24.532H24.3127V16.132H31.5007V24.532H29.9767V17.38H25.8367V24.532Z" fill="black"/>
</svg>
