<svg width="264" height="23" viewBox="0 0 264 23" fill="none" xmlns="http://www.w3.org/2000/svg">
<path d="M250.857 17.25H249.747C249.747 16.6367 249.944 16.18 250.337 15.88C250.737 15.58 251.341 15.43 252.147 15.43C252.954 15.43 253.544 15.5867 253.917 15.9C254.297 16.2133 254.487 16.7 254.487 17.36V21H253.337V20.05C253.144 20.3967 252.884 20.66 252.557 20.84C252.237 21.02 251.867 21.11 251.447 21.11C250.847 21.11 250.387 20.97 250.067 20.69C249.747 20.4033 249.587 19.9933 249.587 19.46C249.587 18.8733 249.764 18.4367 250.117 18.15C250.471 17.8633 251.014 17.72 251.747 17.72H253.337V17.36C253.337 16.98 253.241 16.71 253.047 16.55C252.861 16.3833 252.544 16.3 252.097 16.3C251.664 16.3 251.347 16.3767 251.147 16.53C250.954 16.6767 250.857 16.9167 250.857 17.25ZM250.757 19.39C250.757 19.6767 250.834 19.8867 250.987 20.02C251.141 20.1467 251.384 20.21 251.717 20.21C252.171 20.21 252.554 20.0667 252.867 19.78C253.181 19.4933 253.337 19.1433 253.337 18.73V18.55H251.747C251.401 18.55 251.147 18.6167 250.987 18.75C250.834 18.8833 250.757 19.0967 250.757 19.39Z" fill="white"/>
<path d="M248.612 18.34C248.612 19.24 248.379 19.9267 247.912 20.4C247.446 20.8733 246.766 21.11 245.872 21.11C244.966 21.11 244.286 20.8633 243.832 20.37C243.386 19.87 243.162 19.1233 243.162 18.13V17.08C243.162 16.6867 243.192 16.3367 243.252 16.03C243.312 15.7167 243.406 15.4433 243.532 15.21C243.739 14.83 244.022 14.5267 244.382 14.3C244.742 14.0733 245.162 13.9333 245.642 13.88L247.052 13.73C247.132 13.7167 247.189 13.6967 247.222 13.67C247.262 13.6367 247.282 13.59 247.282 13.53V13.39H248.312V13.61C248.312 13.9633 248.226 14.2233 248.052 14.39C247.886 14.5567 247.606 14.6567 247.212 14.69L245.852 14.82C245.486 14.8533 245.189 14.9333 244.962 15.06C244.736 15.1867 244.562 15.37 244.442 15.61C244.376 15.7433 244.322 15.8967 244.282 16.07C244.242 16.2433 244.216 16.4567 244.202 16.71C244.396 16.3633 244.666 16.0967 245.012 15.91C245.359 15.7233 245.759 15.63 246.212 15.63C246.999 15.63 247.596 15.86 248.002 16.32C248.409 16.78 248.612 17.4533 248.612 18.34ZM244.392 18.32C244.392 18.9467 244.512 19.41 244.752 19.71C244.992 20.01 245.362 20.16 245.862 20.16C246.382 20.16 246.766 20.01 247.012 19.71C247.266 19.41 247.392 18.9467 247.392 18.32C247.392 17.7 247.272 17.24 247.032 16.94C246.792 16.64 246.422 16.49 245.922 16.49C245.402 16.49 245.016 16.64 244.762 16.94C244.516 17.2333 244.392 17.6933 244.392 18.32Z" fill="white"/>
<path d="M238.26 17.25H237.15C237.15 16.6367 237.346 16.18 237.74 15.88C238.14 15.58 238.743 15.43 239.55 15.43C240.356 15.43 240.946 15.5867 241.32 15.9C241.7 16.2133 241.89 16.7 241.89 17.36V21H240.74V20.05C240.546 20.3967 240.286 20.66 239.96 20.84C239.64 21.02 239.27 21.11 238.85 21.11C238.25 21.11 237.79 20.97 237.47 20.69C237.15 20.4033 236.99 19.9933 236.99 19.46C236.99 18.8733 237.166 18.4367 237.52 18.15C237.873 17.8633 238.416 17.72 239.15 17.72H240.74V17.36C240.74 16.98 240.643 16.71 240.45 16.55C240.263 16.3833 239.946 16.3 239.5 16.3C239.066 16.3 238.75 16.3767 238.55 16.53C238.356 16.6767 238.26 16.9167 238.26 17.25ZM238.16 19.39C238.16 19.6767 238.236 19.8867 238.39 20.02C238.543 20.1467 238.786 20.21 239.12 20.21C239.573 20.21 239.956 20.0667 240.27 19.78C240.583 19.4933 240.74 19.1433 240.74 18.73V18.55H239.15C238.803 18.55 238.55 18.6167 238.39 18.75C238.236 18.8833 238.16 19.0967 238.16 19.39Z" fill="white"/>
<path d="M234.533 21H233.353V16.52H231.543V15.55H236.343V16.52H234.533V21Z" fill="white"/>
<path d="M230.51 21H223.2V15.55H224.36V20.03H226.27V15.55H227.44V20.03H229.34V15.55H230.51V21Z" fill="white"/>
<path d="M219.369 15.43C220.149 15.43 220.759 15.6267 221.199 16.02C221.639 16.4133 221.869 16.97 221.889 17.69H220.729C220.709 17.2567 220.582 16.93 220.349 16.71C220.122 16.4833 219.792 16.37 219.359 16.37C218.845 16.37 218.465 16.5267 218.219 16.84C217.979 17.1467 217.859 17.6267 217.859 18.28C217.859 18.9267 217.979 19.4033 218.219 19.71C218.465 20.0167 218.845 20.17 219.359 20.17C219.799 20.17 220.132 20.06 220.359 19.84C220.585 19.62 220.709 19.2833 220.729 18.83H221.889C221.875 19.57 221.652 20.1367 221.219 20.53C220.785 20.9167 220.169 21.11 219.369 21.11C218.482 21.11 217.805 20.87 217.339 20.39C216.879 19.9033 216.649 19.2 216.649 18.28C216.649 17.3533 216.879 16.6467 217.339 16.16C217.805 15.6733 218.482 15.43 219.369 15.43Z" fill="white"/>
<path d="M211.746 17.25H210.636C210.636 16.6367 210.833 16.18 211.226 15.88C211.626 15.58 212.229 15.43 213.036 15.43C213.843 15.43 214.433 15.5867 214.806 15.9C215.186 16.2133 215.376 16.7 215.376 17.36V21H214.226V20.05C214.033 20.3967 213.773 20.66 213.446 20.84C213.126 21.02 212.756 21.11 212.336 21.11C211.736 21.11 211.276 20.97 210.956 20.69C210.636 20.4033 210.476 19.9933 210.476 19.46C210.476 18.8733 210.653 18.4367 211.006 18.15C211.359 17.8633 211.903 17.72 212.636 17.72H214.226V17.36C214.226 16.98 214.129 16.71 213.936 16.55C213.749 16.3833 213.433 16.3 212.986 16.3C212.553 16.3 212.236 16.3767 212.036 16.53C211.843 16.6767 211.746 16.9167 211.746 17.25ZM211.646 19.39C211.646 19.6767 211.723 19.8867 211.876 20.02C212.029 20.1467 212.273 20.21 212.606 20.21C213.059 20.21 213.443 20.0667 213.756 19.78C214.069 19.4933 214.226 19.1433 214.226 18.73V18.55H212.636C212.289 18.55 212.036 18.6167 211.876 18.75C211.723 18.8833 211.646 19.0967 211.646 19.39Z" fill="white"/>
<path d="M204.017 16.93V21H202.907V15.55H204.417L206.047 18.88L207.647 15.55H209.157V21H208.037V16.91L206.597 19.8H205.457L204.017 16.93Z" fill="white"/>
<path d="M194.274 17.29C194.274 16.73 194.424 16.3 194.724 16C195.024 15.7 195.454 15.55 196.014 15.55H199.014V21H197.864V19H196.494L195.584 21H194.374L195.374 18.86C195.014 18.7733 194.741 18.5967 194.554 18.33C194.368 18.0633 194.274 17.7167 194.274 17.29ZM195.444 17.29C195.444 17.5767 195.511 17.7867 195.644 17.92C195.778 18.0467 195.991 18.11 196.284 18.11H197.864V16.44H196.284C195.991 16.44 195.778 16.51 195.644 16.65C195.511 16.7833 195.444 16.9967 195.444 17.29Z" fill="white"/>
<path d="M192.982 21H191.852V16.84L189.492 21H188.082V15.55H189.202V19.74L191.562 15.55H192.982V21Z" fill="white"/>
<path d="M182.69 21H181.51V15.55H182.69V17.73H185.2V15.55H186.39V21H185.2V18.7H182.69V21Z" fill="white"/>
<path d="M177.591 21.11C176.691 21.11 176.014 20.87 175.561 20.39C175.108 19.91 174.881 19.2 174.881 18.26C174.881 17.3333 175.108 16.63 175.561 16.15C176.021 15.67 176.698 15.43 177.591 15.43C178.438 15.43 179.074 15.6533 179.501 16.1C179.928 16.5467 180.141 17.2067 180.141 18.08C180.141 18.1467 180.134 18.23 180.121 18.33C180.114 18.43 180.111 18.49 180.111 18.51H176.031C176.058 19.1033 176.194 19.53 176.441 19.79C176.694 20.05 177.091 20.18 177.631 20.18C178.078 20.18 178.414 20.1 178.641 19.94C178.868 19.7733 178.988 19.5267 179.001 19.2H180.111C180.064 19.8267 179.828 20.3033 179.401 20.63C178.974 20.95 178.371 21.11 177.591 21.11ZM177.591 16.32C177.111 16.32 176.748 16.43 176.501 16.65C176.261 16.87 176.111 17.2233 176.051 17.71H179.031C179.004 17.2233 178.874 16.87 178.641 16.65C178.414 16.43 178.064 16.32 177.591 16.32Z" fill="white"/>
<path d="M169.829 21H168.649V15.55H169.829V17.73H172.339V15.55H173.529V21H172.339V18.7H169.829V21Z" fill="white"/>
<path d="M164.73 21.11C163.83 21.11 163.153 20.87 162.7 20.39C162.246 19.91 162.02 19.2 162.02 18.26C162.02 17.3333 162.246 16.63 162.7 16.15C163.16 15.67 163.836 15.43 164.73 15.43C165.576 15.43 166.213 15.6533 166.64 16.1C167.066 16.5467 167.28 17.2067 167.28 18.08C167.28 18.1467 167.273 18.23 167.26 18.33C167.253 18.43 167.25 18.49 167.25 18.51H163.17C163.196 19.1033 163.333 19.53 163.58 19.79C163.833 20.05 164.23 20.18 164.77 20.18C165.216 20.18 165.553 20.1 165.78 19.94C166.006 19.7733 166.126 19.5267 166.14 19.2H167.25C167.203 19.8267 166.966 20.3033 166.54 20.63C166.113 20.95 165.51 21.11 164.73 21.11ZM164.73 16.32C164.25 16.32 163.886 16.43 163.64 16.65C163.4 16.87 163.25 17.2233 163.19 17.71H166.17C166.143 17.2233 166.013 16.87 165.78 16.65C165.553 16.43 165.203 16.32 164.73 16.32Z" fill="white"/>
<path d="M155.521 16.93V21H154.411V15.55H155.921L157.551 18.88L159.151 15.55H160.661V21H159.541V16.91L158.101 19.8H156.961L155.521 16.93Z" fill="white"/>
<path d="M151.994 18.17C152.394 18.25 152.687 18.3967 152.874 18.61C153.067 18.8233 153.164 19.1167 153.164 19.49C153.164 20.0433 152.964 20.4533 152.564 20.72C152.164 20.98 151.547 21.11 150.714 21.11C149.907 21.11 149.314 20.9567 148.934 20.65C148.554 20.3433 148.364 19.8667 148.364 19.22H149.454C149.454 19.5733 149.554 19.83 149.754 19.99C149.954 20.15 150.274 20.23 150.714 20.23C151.16 20.23 151.487 20.1667 151.694 20.04C151.9 19.9067 152.004 19.7033 152.004 19.43C152.004 19.1567 151.924 18.9567 151.764 18.83C151.61 18.6967 151.364 18.63 151.024 18.63H150.024V17.78H151.024C151.337 17.78 151.567 17.7233 151.714 17.61C151.867 17.49 151.944 17.3067 151.944 17.06C151.944 16.8 151.847 16.61 151.654 16.49C151.46 16.3633 151.157 16.3 150.744 16.3C150.31 16.3 149.99 16.3833 149.784 16.55C149.584 16.7167 149.484 16.98 149.484 17.34H148.434C148.434 16.7067 148.627 16.23 149.014 15.91C149.407 15.59 149.987 15.43 150.754 15.43C151.514 15.43 152.087 15.5567 152.474 15.81C152.86 16.0567 153.054 16.42 153.054 16.9C153.054 17.24 152.967 17.5133 152.794 17.72C152.62 17.9267 152.354 18.0767 151.994 18.17Z" fill="white"/>
<path d="M147.172 21H146.042V16.84L143.682 21H142.272V15.55H143.392V19.74L145.752 15.55H147.172V21Z" fill="white"/>
<path d="M138.383 21H137.253V16.84L134.893 21H133.483V15.55H134.603V19.74L136.963 15.55H138.383V21Z" fill="white"/>
<path d="M126.043 17.25H124.933C124.933 16.6367 125.129 16.18 125.523 15.88C125.923 15.58 126.526 15.43 127.333 15.43C128.139 15.43 128.729 15.5867 129.103 15.9C129.483 16.2133 129.673 16.7 129.673 17.36V21H128.523V20.05C128.329 20.3967 128.069 20.66 127.743 20.84C127.423 21.02 127.053 21.11 126.633 21.11C126.033 21.11 125.573 20.97 125.253 20.69C124.933 20.4033 124.773 19.9933 124.773 19.46C124.773 18.8733 124.949 18.4367 125.303 18.15C125.656 17.8633 126.199 17.72 126.933 17.72H128.523V17.36C128.523 16.98 128.426 16.71 128.233 16.55C128.046 16.3833 127.729 16.3 127.283 16.3C126.849 16.3 126.533 16.3767 126.333 16.53C126.139 16.6767 126.043 16.9167 126.043 17.25ZM125.943 19.39C125.943 19.6767 126.019 19.8867 126.173 20.02C126.326 20.1467 126.569 20.21 126.903 20.21C127.356 20.21 127.739 20.0667 128.053 19.78C128.366 19.4933 128.523 19.1433 128.523 18.73V18.55H126.933C126.586 18.55 126.333 18.6167 126.173 18.75C126.019 18.8833 125.943 19.0967 125.943 19.39Z" fill="white"/>
<path d="M122.316 21H121.136V16.52H119.326V15.55H124.126V16.52H122.316V21Z" fill="white"/>
<path d="M118.798 18.27C118.798 19.1967 118.565 19.9033 118.098 20.39C117.632 20.87 116.952 21.11 116.058 21.11C115.165 21.11 114.485 20.87 114.018 20.39C113.558 19.91 113.328 19.2067 113.328 18.28C113.328 17.3533 113.558 16.6467 114.018 16.16C114.485 15.6733 115.165 15.43 116.058 15.43C116.952 15.43 117.632 15.6733 118.098 16.16C118.565 16.64 118.798 17.3433 118.798 18.27ZM114.538 18.28C114.538 18.92 114.662 19.3967 114.908 19.71C115.162 20.0167 115.545 20.17 116.058 20.17C116.578 20.17 116.962 20.0167 117.208 19.71C117.462 19.3967 117.588 18.9167 117.588 18.27C117.588 17.6233 117.462 17.1467 117.208 16.84C116.962 16.5267 116.578 16.37 116.058 16.37C115.545 16.37 115.162 16.5267 114.908 16.84C114.662 17.1533 114.538 17.6333 114.538 18.28Z" fill="white"/>
<path d="M112.3 18.28C112.3 19.2 112.097 19.9033 111.69 20.39C111.29 20.87 110.707 21.11 109.94 21.11C109.547 21.11 109.19 21.02 108.87 20.84C108.557 20.66 108.3 20.4 108.1 20.06V23H106.92V15.55H108.1V16.49C108.3 16.15 108.557 15.89 108.87 15.71C109.19 15.5233 109.547 15.43 109.94 15.43C110.707 15.43 111.29 15.6733 111.69 16.16C112.097 16.6467 112.3 17.3533 112.3 18.28ZM108.1 18.28C108.1 18.9067 108.227 19.3767 108.48 19.69C108.734 20.0033 109.114 20.16 109.62 20.16C110.114 20.16 110.48 20.0067 110.72 19.7C110.96 19.3933 111.08 18.92 111.08 18.28C111.08 17.6333 110.96 17.1567 110.72 16.85C110.487 16.5367 110.12 16.38 109.62 16.38C109.114 16.38 108.734 16.54 108.48 16.86C108.227 17.1733 108.1 17.6467 108.1 18.28Z" fill="white"/>
<path d="M105.556 18.27C105.556 19.1967 105.323 19.9033 104.856 20.39C104.39 20.87 103.71 21.11 102.816 21.11C101.923 21.11 101.243 20.87 100.776 20.39C100.316 19.91 100.086 19.2067 100.086 18.28C100.086 17.3533 100.316 16.6467 100.776 16.16C101.243 15.6733 101.923 15.43 102.816 15.43C103.71 15.43 104.39 15.6733 104.856 16.16C105.323 16.64 105.556 17.3433 105.556 18.27ZM101.296 18.28C101.296 18.92 101.42 19.3967 101.666 19.71C101.92 20.0167 102.303 20.17 102.816 20.17C103.336 20.17 103.72 20.0167 103.966 19.71C104.22 19.3967 104.346 18.9167 104.346 18.27C104.346 17.6233 104.22 17.1467 103.966 16.84C103.72 16.5267 103.336 16.37 102.816 16.37C102.303 16.37 101.92 16.5267 101.666 16.84C101.42 17.1533 101.296 17.6333 101.296 18.28Z" fill="white"/>
<path d="M97.5229 21H94.3129V15.55H97.3429C97.8362 15.55 98.2162 15.6667 98.4829 15.9C98.7496 16.1333 98.8829 16.4667 98.8829 16.9C98.8829 17.2333 98.8029 17.5067 98.6429 17.72C98.4896 17.9333 98.2562 18.0867 97.9429 18.18C98.3162 18.2533 98.5996 18.4033 98.7929 18.63C98.9929 18.8567 99.0929 19.1533 99.0929 19.52C99.0929 19.9733 98.9496 20.3333 98.6629 20.6C98.3829 20.8667 98.0029 21 97.5229 21ZM97.7329 17.1C97.7329 16.8667 97.6762 16.6933 97.5629 16.58C97.4562 16.46 97.2896 16.4 97.0629 16.4H95.4629V17.79H97.0529C97.2862 17.79 97.4562 17.7333 97.5629 17.62C97.6762 17.5067 97.7329 17.3333 97.7329 17.1ZM97.9229 19.39C97.9229 19.13 97.8562 18.94 97.7229 18.82C97.5896 18.6933 97.3796 18.63 97.0929 18.63H95.4629V20.14H97.1329C97.4062 20.14 97.6062 20.08 97.7329 19.96C97.8596 19.84 97.9229 19.65 97.9229 19.39Z" fill="white"/>
<path d="M92.9488 18.27C92.9488 19.1967 92.7154 19.9033 92.2488 20.39C91.7821 20.87 91.1021 21.11 90.2088 21.11C89.3154 21.11 88.6354 20.87 88.1688 20.39C87.7088 19.91 87.4788 19.2067 87.4788 18.28C87.4788 17.3533 87.7088 16.6467 88.1688 16.16C88.6354 15.6733 89.3154 15.43 90.2088 15.43C91.1021 15.43 91.7821 15.6733 92.2488 16.16C92.7154 16.64 92.9488 17.3433 92.9488 18.27ZM88.6888 18.28C88.6888 18.92 88.8121 19.3967 89.0588 19.71C89.3121 20.0167 89.6954 20.17 90.2088 20.17C90.7288 20.17 91.1121 20.0167 91.3588 19.71C91.6121 19.3967 91.7388 18.9167 91.7388 18.27C91.7388 17.6233 91.6121 17.1467 91.3588 16.84C91.1121 16.5267 90.7288 16.37 90.2088 16.37C89.6954 16.37 89.3121 16.5267 89.0588 16.84C88.8121 17.1533 88.6888 17.6333 88.6888 18.28Z" fill="white"/>
<path d="M82.5046 21H81.3246V15.55H86.1246V21H84.9346V16.52H82.5046V21Z" fill="white"/>
<path d="M72.6922 17.29C72.6922 16.73 72.8422 16.3 73.1422 16C73.4422 15.7 73.8722 15.55 74.4322 15.55H77.4322V21H76.2822V19H74.9122L74.0022 21H72.7922L73.7922 18.86C73.4322 18.7733 73.1589 18.5967 72.9722 18.33C72.7855 18.0633 72.6922 17.7167 72.6922 17.29ZM73.8622 17.29C73.8622 17.5767 73.9289 17.7867 74.0622 17.92C74.1955 18.0467 74.4089 18.11 74.7022 18.11H76.2822V16.44H74.7022C74.4089 16.44 74.1955 16.51 74.0622 16.65C73.9289 16.7833 73.8622 16.9967 73.8622 17.29Z" fill="white"/>
<path d="M66.1501 21.04V20.05H66.4301C66.6901 20.05 66.8701 19.9133 66.9701 19.64C67.0701 19.3667 67.1301 18.8233 67.1501 18.01L67.2101 15.55H71.3901V21H70.2101V16.52H68.3301L68.2801 18.1C68.2601 18.7467 68.2167 19.2533 68.1501 19.62C68.0834 19.9867 67.9834 20.2667 67.8501 20.46C67.7101 20.6667 67.5467 20.8167 67.3601 20.91C67.1734 20.9967 66.9267 21.04 66.6201 21.04H66.1501Z" fill="white"/>
<path d="M60.7166 22.65H59.6366V20.03H60.2166C60.4033 19.7967 60.5333 19.47 60.6066 19.05C60.6866 18.63 60.7333 17.9833 60.7466 17.11L60.7666 15.55H64.9266V20.03H65.6166V22.65H64.5266V21H60.7166V22.65ZM61.8366 16.5L61.8266 17.1C61.8133 17.9533 61.7733 18.5867 61.7066 19C61.64 19.4067 61.5233 19.75 61.3566 20.03H63.8066V16.5H61.8366Z" fill="white"/>
<path d="M56.5176 21H55.3876V16.84L53.0276 21H51.6176V15.55H52.7376V19.74L55.0976 15.55H56.5176V21Z" fill="white"/>
<path d="M46.8503 21H45.6703V15.55H46.8503V17.7H48.0503L49.3203 15.55H50.6003L49.0403 18.11L50.6403 21H49.3603L48.0503 18.67H46.8503V21Z" fill="white"/>
<path d="M40.278 21H39.098V15.55H40.278V17.73H42.788V15.55H43.978V21H42.788V18.7H40.278V21Z" fill="white"/>
<path d="M35.4573 19.88L36.9373 15.55H38.1373L35.8273 22.04C35.6939 22.4133 35.5406 22.6667 35.3673 22.8C35.1939 22.9333 34.9373 23 34.5973 23H33.2473V22.04H34.3973C34.4973 22.04 34.5739 22.02 34.6273 21.98C34.6806 21.94 34.7239 21.87 34.7573 21.77L34.8873 21.36L32.5373 15.55H33.7873L35.4573 19.88Z" fill="white"/>
<path d="M30.8804 18.17C31.2804 18.25 31.5737 18.3967 31.7604 18.61C31.9537 18.8233 32.0504 19.1167 32.0504 19.49C32.0504 20.0433 31.8504 20.4533 31.4504 20.72C31.0504 20.98 30.4337 21.11 29.6004 21.11C28.7937 21.11 28.2004 20.9567 27.8204 20.65C27.4404 20.3433 27.2504 19.8667 27.2504 19.22H28.3404C28.3404 19.5733 28.4404 19.83 28.6404 19.99C28.8404 20.15 29.1604 20.23 29.6004 20.23C30.0471 20.23 30.3737 20.1667 30.5804 20.04C30.7871 19.9067 30.8904 19.7033 30.8904 19.43C30.8904 19.1567 30.8104 18.9567 30.6504 18.83C30.4971 18.6967 30.2504 18.63 29.9104 18.63H28.9104V17.78H29.9104C30.2237 17.78 30.4537 17.7233 30.6004 17.61C30.7537 17.49 30.8304 17.3067 30.8304 17.06C30.8304 16.8 30.7337 16.61 30.5404 16.49C30.3471 16.3633 30.0437 16.3 29.6304 16.3C29.1971 16.3 28.8771 16.3833 28.6704 16.55C28.4704 16.7167 28.3704 16.98 28.3704 17.34H27.3204C27.3204 16.7067 27.5137 16.23 27.9004 15.91C28.2937 15.59 28.8737 15.43 29.6404 15.43C30.4004 15.43 30.9737 15.5567 31.3604 15.81C31.7471 16.0567 31.9404 16.42 31.9404 16.9C31.9404 17.24 31.8537 17.5133 31.6804 17.72C31.5071 17.9267 31.2404 18.0767 30.8804 18.17Z" fill="white"/>
<path d="M20.8083 21.04V20.05H21.0883C21.3483 20.05 21.5283 19.9133 21.6283 19.64C21.7283 19.3667 21.7883 18.8233 21.8083 18.01L21.8683 15.55H26.0483V21H24.8683V16.52H22.9883L22.9383 18.1C22.9183 18.7467 22.8749 19.2533 22.8083 19.62C22.7416 19.9867 22.6416 20.2667 22.5083 20.46C22.3683 20.6667 22.2049 20.8167 22.0183 20.91C21.8316 20.9967 21.5849 21.04 21.2783 21.04H20.8083Z" fill="white"/>
<path d="M20.2241 18.27C20.2241 19.1967 19.9908 19.9033 19.5241 20.39C19.0575 20.87 18.3775 21.11 17.4841 21.11C16.5908 21.11 15.9108 20.87 15.4441 20.39C14.9841 19.91 14.7541 19.2067 14.7541 18.28C14.7541 17.3533 14.9841 16.6467 15.4441 16.16C15.9108 15.6733 16.5908 15.43 17.4841 15.43C18.3775 15.43 19.0575 15.6733 19.5241 16.16C19.9908 16.64 20.2241 17.3433 20.2241 18.27ZM15.9641 18.28C15.9641 18.92 16.0875 19.3967 16.3341 19.71C16.5875 20.0167 16.9708 20.17 17.4841 20.17C18.0041 20.17 18.3875 20.0167 18.6341 19.71C18.8875 19.3967 19.0141 18.9167 19.0141 18.27C19.0141 17.6233 18.8875 17.1467 18.6341 16.84C18.3875 16.5267 18.0041 16.37 17.4841 16.37C16.9708 16.37 16.5875 16.5267 16.3341 16.84C16.0875 17.1533 15.9641 17.6333 15.9641 18.28Z" fill="white"/>
<path d="M9.78 21H8.6V15.55H13.4V21H12.21V16.52H9.78V21Z" fill="white"/>
<path d="M260.472 8.10999C259.572 8.10999 258.895 7.86999 258.442 7.38999C257.989 6.90999 257.762 6.19999 257.762 5.25999C257.762 4.33333 257.989 3.62999 258.442 3.14999C258.902 2.66999 259.579 2.42999 260.472 2.42999C261.319 2.42999 261.955 2.65333 262.382 3.09999C262.809 3.54666 263.022 4.20666 263.022 5.07999C263.022 5.14666 263.015 5.22999 263.002 5.32999C262.995 5.42999 262.992 5.48999 262.992 5.50999H258.912C258.939 6.10333 259.075 6.52999 259.322 6.78999C259.575 7.04999 259.972 7.17999 260.512 7.17999C260.959 7.17999 261.295 7.09999 261.522 6.93999C261.749 6.77333 261.869 6.52666 261.882 6.19999H262.992C262.945 6.82666 262.709 7.30333 262.282 7.62999C261.855 7.94999 261.252 8.10999 260.472 8.10999ZM260.472 3.31999C259.992 3.31999 259.629 3.42999 259.382 3.64999C259.142 3.86999 258.992 4.22333 258.932 4.70999H261.912C261.885 4.22333 261.755 3.86999 261.522 3.64999C261.295 3.42999 260.945 3.31999 260.472 3.31999Z" fill="white"/>
<path d="M255.432 7.99999H254.252V3.51999H252.442V2.54999H257.242V3.51999H255.432V7.99999Z" fill="white"/>
<path d="M249.72 0.539995V0.369995H250.68C250.68 0.929995 250.547 1.33666 250.28 1.58999C250.013 1.83666 249.58 1.95999 248.98 1.95999C248.373 1.95999 247.933 1.83666 247.66 1.58999C247.393 1.33666 247.26 0.929995 247.26 0.369995H248.22V0.539995C248.22 0.766662 248.28 0.933328 248.4 1.03999C248.527 1.14666 248.72 1.2 248.98 1.2C249.233 1.2 249.42 1.14666 249.54 1.03999C249.66 0.933328 249.72 0.766662 249.72 0.539995ZM251.42 8H250.29V3.84L247.93 8H246.52V2.54999H247.64V6.74L250 2.54999H251.42V8Z" fill="white"/>
<path d="M242.879 6.87999L244.359 2.54999H245.559L243.249 9.03999C243.116 9.41332 242.962 9.66666 242.789 9.79999C242.616 9.93332 242.359 9.99999 242.019 9.99999H240.669V9.03999H241.819C241.919 9.03999 241.996 9.01999 242.049 8.97999C242.102 8.93999 242.146 8.86999 242.179 8.76999L242.309 8.35999L239.959 2.54999H241.209L242.879 6.87999Z" fill="white"/>
<path d="M238.302 5.16999C238.702 5.24999 238.996 5.39666 239.182 5.60999C239.376 5.82333 239.472 6.11666 239.472 6.48999C239.472 7.04333 239.272 7.45333 238.872 7.71999C238.472 7.97999 237.856 8.10999 237.022 8.10999C236.216 8.10999 235.622 7.95666 235.242 7.64999C234.862 7.34333 234.672 6.86666 234.672 6.21999H235.762C235.762 6.57333 235.862 6.82999 236.062 6.98999C236.262 7.14999 236.582 7.22999 237.022 7.22999C237.469 7.22999 237.796 7.16666 238.002 7.03999C238.209 6.90666 238.312 6.70333 238.312 6.42999C238.312 6.15666 238.232 5.95666 238.072 5.82999C237.919 5.69666 237.672 5.62999 237.332 5.62999H236.332V4.77999H237.332C237.646 4.77999 237.876 4.72333 238.022 4.60999C238.176 4.48999 238.252 4.30666 238.252 4.05999C238.252 3.79999 238.156 3.60999 237.962 3.48999C237.769 3.36333 237.466 3.29999 237.052 3.29999C236.619 3.29999 236.299 3.38333 236.092 3.54999C235.892 3.71666 235.792 3.97999 235.792 4.33999H234.742C234.742 3.70666 234.936 3.22999 235.322 2.90999C235.716 2.58999 236.296 2.42999 237.062 2.42999C237.822 2.42999 238.396 2.55666 238.782 2.80999C239.169 3.05666 239.362 3.41999 239.362 3.89999C239.362 4.23999 239.276 4.51333 239.102 4.71999C238.929 4.92666 238.662 5.07666 238.302 5.16999Z" fill="white"/>
<path d="M232.29 7.99999H229.45V2.54999H230.63V4.26999H232.29C232.85 4.26999 233.276 4.43332 233.57 4.75999C233.87 5.07999 234.02 5.54332 234.02 6.14999C234.02 6.74999 233.87 7.20999 233.57 7.52999C233.276 7.84332 232.85 7.99999 232.29 7.99999ZM232.87 6.14999C232.87 5.82332 232.796 5.57999 232.65 5.41999C232.51 5.25999 232.293 5.17999 232 5.17999H230.63V7.08999H232C232.293 7.08999 232.51 7.01332 232.65 6.85999C232.796 6.70665 232.87 6.46999 232.87 6.14999Z" fill="white"/>
<path d="M222.508 8.03999V7.04999H222.788C223.048 7.04999 223.227 6.91332 223.327 6.63999C223.427 6.36666 223.488 5.82332 223.508 5.00999L223.568 2.54999H227.747V7.99999H226.568V3.51999H224.688L224.637 5.09999C224.617 5.74665 224.574 6.25332 224.508 6.61999C224.441 6.98665 224.341 7.26665 224.208 7.45999C224.068 7.66665 223.904 7.81665 223.717 7.90999C223.531 7.99665 223.284 8.03999 222.977 8.03999H222.508Z" fill="white"/>
<path d="M221.923 5.26999C221.923 6.19666 221.69 6.90333 221.223 7.38999C220.757 7.86999 220.077 8.10999 219.183 8.10999C218.29 8.10999 217.61 7.86999 217.143 7.38999C216.683 6.90999 216.453 6.20666 216.453 5.27999C216.453 4.35333 216.683 3.64666 217.143 3.15999C217.61 2.67333 218.29 2.42999 219.183 2.42999C220.077 2.42999 220.757 2.67333 221.223 3.15999C221.69 3.63999 221.923 4.34333 221.923 5.26999ZM217.663 5.27999C217.663 5.91999 217.787 6.39666 218.033 6.70999C218.287 7.01666 218.67 7.16999 219.183 7.16999C219.703 7.16999 220.087 7.01666 220.333 6.70999C220.587 6.39666 220.713 5.91666 220.713 5.26999C220.713 4.62333 220.587 4.14666 220.333 3.83999C220.087 3.52666 219.703 3.36999 219.183 3.36999C218.67 3.36999 218.287 3.52666 218.033 3.83999C217.787 4.15333 217.663 4.63333 217.663 5.27999Z" fill="white"/>
<path d="M211.479 7.99999H210.299V2.54999H215.099V7.99999H213.909V3.51999H211.479V7.99999Z" fill="white"/>
<path d="M206.468 2.42999C207.248 2.42999 207.858 2.62666 208.298 3.01999C208.738 3.41333 208.968 3.96999 208.988 4.68999H207.828C207.808 4.25666 207.682 3.92999 207.448 3.70999C207.222 3.48333 206.892 3.36999 206.458 3.36999C205.945 3.36999 205.565 3.52666 205.318 3.83999C205.078 4.14666 204.958 4.62666 204.958 5.27999C204.958 5.92666 205.078 6.40333 205.318 6.70999C205.565 7.01666 205.945 7.16999 206.458 7.16999C206.898 7.16999 207.232 7.05999 207.458 6.83999C207.685 6.61999 207.808 6.28333 207.828 5.82999H208.988C208.975 6.56999 208.752 7.13666 208.318 7.52999C207.885 7.91666 207.268 8.10999 206.468 8.10999C205.582 8.10999 204.905 7.86999 204.438 7.38999C203.978 6.90333 203.748 6.19999 203.748 5.27999C203.748 4.35333 203.978 3.64666 204.438 3.15999C204.905 2.67333 205.582 2.42999 206.468 2.42999Z" fill="white"/>
<path d="M202.396 7.99999H201.266V3.83999L198.906 7.99999H197.496V2.54999H198.616V6.73999L200.976 2.54999H202.396V7.99999Z" fill="white"/>
<path d="M191.38 8.10999C190.48 8.10999 189.803 7.86999 189.35 7.38999C188.897 6.90999 188.67 6.19999 188.67 5.25999C188.67 4.33333 188.897 3.62999 189.35 3.14999C189.81 2.66999 190.487 2.42999 191.38 2.42999C192.227 2.42999 192.863 2.65333 193.29 3.09999C193.717 3.54666 193.93 4.20666 193.93 5.07999C193.93 5.14666 193.923 5.22999 193.91 5.32999C193.903 5.42999 193.9 5.48999 193.9 5.50999H189.82C189.847 6.10333 189.983 6.52999 190.23 6.78999C190.483 7.04999 190.88 7.17999 191.42 7.17999C191.867 7.17999 192.203 7.09999 192.43 6.93999C192.657 6.77333 192.777 6.52666 192.79 6.19999H193.9C193.853 6.82666 193.617 7.30333 193.19 7.62999C192.763 7.94999 192.16 8.10999 191.38 8.10999ZM191.38 3.31999C190.9 3.31999 190.537 3.42999 190.29 3.64999C190.05 3.86999 189.9 4.22333 189.84 4.70999H192.82C192.793 4.22333 192.663 3.86999 192.43 3.64999C192.203 3.42999 191.853 3.31999 191.38 3.31999Z" fill="white"/>
<path d="M184.821 7.99999H183.681V5.66999H182.681L181.521 7.99999H180.311L181.771 5.13999L180.341 2.54999H181.561L182.701 4.69999H183.681V2.54999H184.821V4.69999H185.791L186.921 2.54999H188.151L186.731 5.14999L188.191 7.99999H186.951L185.811 5.66999H184.821V7.99999Z" fill="white"/>
<path d="M176.255 7.99999H175.075V2.54999H176.255V4.69999H177.455L178.725 2.54999H180.005L178.445 5.10999L180.045 7.99999H178.765L177.455 5.66999H176.255V7.99999Z" fill="white"/>
<path d="M169.832 4.24999H168.722C168.722 3.63666 168.918 3.17999 169.312 2.87999C169.712 2.57999 170.315 2.42999 171.122 2.42999C171.928 2.42999 172.518 2.58666 172.892 2.89999C173.272 3.21333 173.462 3.69999 173.462 4.35999V7.99999H172.312V7.04999C172.118 7.39666 171.858 7.65999 171.532 7.83999C171.212 8.01999 170.842 8.10999 170.422 8.10999C169.822 8.10999 169.362 7.96999 169.042 7.68999C168.722 7.40333 168.562 6.99333 168.562 6.45999C168.562 5.87333 168.738 5.43666 169.092 5.14999C169.445 4.86333 169.988 4.71999 170.722 4.71999H172.312V4.35999C172.312 3.97999 172.215 3.70999 172.022 3.54999C171.835 3.38333 171.518 3.29999 171.072 3.29999C170.638 3.29999 170.322 3.37666 170.122 3.52999C169.928 3.67666 169.832 3.91666 169.832 4.24999ZM169.732 6.38999C169.732 6.67666 169.808 6.88666 169.962 7.01999C170.115 7.14666 170.358 7.20999 170.692 7.20999C171.145 7.20999 171.528 7.06666 171.842 6.77999C172.155 6.49333 172.312 6.14333 172.312 5.72999V5.54999H170.722C170.375 5.54999 170.122 5.61666 169.962 5.74999C169.808 5.88333 169.732 6.09666 169.732 6.38999Z" fill="white"/>
<path d="M166.106 7.99999H164.926V3.51999H163.116V2.54999H167.916V3.51999H166.106V7.99999Z" fill="white"/>
<path d="M156.345 4.24999H155.235C155.235 3.63666 155.432 3.17999 155.825 2.87999C156.225 2.57999 156.829 2.42999 157.635 2.42999C158.442 2.42999 159.032 2.58666 159.405 2.89999C159.785 3.21333 159.975 3.69999 159.975 4.35999V7.99999H158.825V7.04999C158.632 7.39666 158.372 7.65999 158.045 7.83999C157.725 8.01999 157.355 8.10999 156.935 8.10999C156.335 8.10999 155.875 7.96999 155.555 7.68999C155.235 7.40333 155.075 6.99333 155.075 6.45999C155.075 5.87333 155.252 5.43666 155.605 5.14999C155.959 4.86333 156.502 4.71999 157.235 4.71999H158.825V4.35999C158.825 3.97999 158.729 3.70999 158.535 3.54999C158.349 3.38333 158.032 3.29999 157.585 3.29999C157.152 3.29999 156.835 3.37666 156.635 3.52999C156.442 3.67666 156.345 3.91666 156.345 4.24999ZM156.245 6.38999C156.245 6.67666 156.322 6.88666 156.475 7.01999C156.629 7.14666 156.872 7.20999 157.205 7.20999C157.659 7.20999 158.042 7.06666 158.355 6.77999C158.669 6.49333 158.825 6.14333 158.825 5.72999V5.54999H157.235C156.889 5.54999 156.635 5.61666 156.475 5.74999C156.322 5.88333 156.245 6.09666 156.245 6.38999Z" fill="white"/>
<path d="M150.277 6.70999H151.657V8.78999C151.657 9.07666 151.577 9.29999 151.417 9.45999C151.257 9.61999 151.034 9.69999 150.747 9.69999H150.057V8.99999H150.657C150.731 8.99999 150.784 8.97999 150.817 8.93999C150.857 8.89999 150.877 8.84333 150.877 8.76999V7.99999H150.277V6.70999Z" fill="white"/>
<path d="M143.538 3.92999V7.99999H142.428V2.54999H143.938L145.568 5.87999L147.168 2.54999H148.678V7.99999H147.558V3.90999L146.118 6.79999H144.978L143.538 3.92999Z" fill="white"/>
<path d="M138.509 8.10999C137.609 8.10999 136.932 7.86999 136.479 7.38999C136.026 6.90999 135.799 6.19999 135.799 5.25999C135.799 4.33333 136.026 3.62999 136.479 3.14999C136.939 2.66999 137.616 2.42999 138.509 2.42999C139.356 2.42999 139.992 2.65333 140.419 3.09999C140.846 3.54666 141.059 4.20666 141.059 5.07999C141.059 5.14666 141.052 5.22999 141.039 5.32999C141.032 5.42999 141.029 5.48999 141.029 5.50999H136.949C136.976 6.10333 137.112 6.52999 137.359 6.78999C137.612 7.04999 138.009 7.17999 138.549 7.17999C138.996 7.17999 139.332 7.09999 139.559 6.93999C139.786 6.77333 139.906 6.52666 139.919 6.19999H141.029C140.982 6.82666 140.746 7.30333 140.319 7.62999C139.892 7.94999 139.289 8.10999 138.509 8.10999ZM138.509 3.31999C138.029 3.31999 137.666 3.42999 137.419 3.64999C137.179 3.86999 137.029 4.22333 136.969 4.70999H139.949C139.922 4.22333 139.792 3.86999 139.559 3.64999C139.332 3.42999 138.982 3.31999 138.509 3.31999Z" fill="white"/>
<path d="M133.965 7.99999H129.655V2.54999H130.835V7.02999H133.185V2.54999H134.375V7.02999H135.065V9.64999H133.965V7.99999Z" fill="white"/>
<path d="M126.772 7.99999H123.932V2.54999H125.112V4.26999H126.772C127.332 4.26999 127.759 4.43332 128.052 4.75999C128.352 5.07999 128.502 5.54332 128.502 6.14999C128.502 6.74999 128.352 7.20999 128.052 7.52999C127.759 7.84332 127.332 7.99999 126.772 7.99999ZM127.352 6.14999C127.352 5.82332 127.279 5.57999 127.132 5.41999C126.992 5.25999 126.775 5.17999 126.482 5.17999H125.112V7.08999H126.482C126.775 7.08999 126.992 7.01332 127.132 6.85999C127.279 6.70665 127.352 6.46999 127.352 6.14999Z" fill="white"/>
<path d="M116.99 8.03999V7.04999H117.27C117.53 7.04999 117.71 6.91332 117.81 6.63999C117.91 6.36666 117.97 5.82332 117.99 5.00999L118.05 2.54999H122.23V7.99999H121.05V3.51999H119.17L119.12 5.09999C119.1 5.74665 119.057 6.25332 118.99 6.61999C118.923 6.98665 118.823 7.26665 118.69 7.45999C118.55 7.66665 118.387 7.81665 118.2 7.90999C118.013 7.99665 117.767 8.03999 117.46 8.03999H116.99Z" fill="white"/>
<path d="M112.527 4.24999H111.417C111.417 3.63666 111.614 3.17999 112.007 2.87999C112.407 2.57999 113.01 2.42999 113.817 2.42999C114.624 2.42999 115.214 2.58666 115.587 2.89999C115.967 3.21333 116.157 3.69999 116.157 4.35999V7.99999H115.007V7.04999C114.814 7.39666 114.554 7.65999 114.227 7.83999C113.907 8.01999 113.537 8.10999 113.117 8.10999C112.517 8.10999 112.057 7.96999 111.737 7.68999C111.417 7.40333 111.257 6.99333 111.257 6.45999C111.257 5.87333 111.434 5.43666 111.787 5.14999C112.14 4.86333 112.684 4.71999 113.417 4.71999H115.007V4.35999C115.007 3.97999 114.91 3.70999 114.717 3.54999C114.53 3.38333 114.214 3.29999 113.767 3.29999C113.334 3.29999 113.017 3.37666 112.817 3.52999C112.624 3.67666 112.527 3.91666 112.527 4.24999ZM112.427 6.38999C112.427 6.67666 112.504 6.88666 112.657 7.01999C112.81 7.14666 113.054 7.20999 113.387 7.20999C113.84 7.20999 114.224 7.06666 114.537 6.77999C114.85 6.49333 115.007 6.14333 115.007 5.72999V5.54999H113.417C113.07 5.54999 112.817 5.61666 112.657 5.74999C112.504 5.88333 112.427 6.09666 112.427 6.38999Z" fill="white"/>
<path d="M106.323 7.99999H105.143V2.54999H109.943V7.99999H108.753V3.51999H106.323V7.99999Z" fill="white"/>
<path d="M101.582 5.26999C101.582 6.19666 101.348 6.90333 100.882 7.38999C100.415 7.86999 99.7349 8.10999 98.8416 8.10999C97.9482 8.10999 97.2682 7.86999 96.8016 7.38999C96.3416 6.90999 96.1116 6.20666 96.1116 5.27999C96.1116 4.35333 96.3416 3.64666 96.8016 3.15999C97.2682 2.67333 97.9482 2.42999 98.8416 2.42999C99.7349 2.42999 100.415 2.67333 100.882 3.15999C101.348 3.63999 101.582 4.34333 101.582 5.26999ZM97.3216 5.27999C97.3216 5.91999 97.4449 6.39666 97.6916 6.70999C97.9449 7.01666 98.3282 7.16999 98.8416 7.16999C99.3616 7.16999 99.7449 7.01666 99.9916 6.70999C100.245 6.39666 100.372 5.91666 100.372 5.26999C100.372 4.62333 100.245 4.14666 99.9916 3.83999C99.7449 3.52666 99.3616 3.36999 98.8416 3.36999C98.3282 3.36999 97.9449 3.52666 97.6916 3.83999C97.4449 4.15333 97.3216 4.63333 97.3216 5.27999Z" fill="white"/>
<path d="M93.7813 7.99999H92.6013V3.51999H90.7913V2.54999H95.5913V3.51999H93.7813V7.99999Z" fill="white"/>
<path d="M90.2632 5.26999C90.2632 6.19666 90.0299 6.90333 89.5632 7.38999C89.0965 7.86999 88.4165 8.10999 87.5232 8.10999C86.6299 8.10999 85.9499 7.86999 85.4832 7.38999C85.0232 6.90999 84.7932 6.20666 84.7932 5.27999C84.7932 4.35333 85.0232 3.64666 85.4832 3.15999C85.9499 2.67333 86.6299 2.42999 87.5232 2.42999C88.4165 2.42999 89.0965 2.67333 89.5632 3.15999C90.0299 3.63999 90.2632 4.34333 90.2632 5.26999ZM86.0032 5.27999C86.0032 5.91999 86.1265 6.39666 86.3732 6.70999C86.6265 7.01666 87.0099 7.16999 87.5232 7.16999C88.0432 7.16999 88.4265 7.01666 88.6732 6.70999C88.9265 6.39666 89.0532 5.91666 89.0532 5.26999C89.0532 4.62333 88.9265 4.14666 88.6732 3.83999C88.4265 3.52666 88.0432 3.36999 87.5232 3.36999C87.0099 3.36999 86.6265 3.52666 86.3732 3.83999C86.1265 4.15333 86.0032 4.63333 86.0032 5.27999Z" fill="white"/>
<path d="M80.8649 10H79.7149V8.07C78.7483 8.06333 78.0216 7.82667 77.5349 7.36C77.0483 6.89333 76.8049 6.20333 76.8049 5.29C76.8049 4.37 77.0483 3.67333 77.5349 3.2C78.0283 2.72 78.7549 2.47667 79.7149 2.47V0.5H80.8649V2.47C81.8249 2.47667 82.5483 2.72 83.0349 3.2C83.5283 3.67333 83.7749 4.37 83.7749 5.29C83.7749 6.19667 83.5283 6.88333 83.0349 7.35C82.5483 7.81667 81.8249 8.05667 80.8649 8.07V10ZM82.6349 5.29C82.6349 4.63 82.4949 4.15 82.2149 3.85C81.9349 3.55 81.4849 3.39333 80.8649 3.38V7.15C81.4849 7.13667 81.9349 6.98333 82.2149 6.69C82.4949 6.39667 82.6349 5.93 82.6349 5.29ZM77.9449 5.29C77.9449 5.93667 78.0816 6.40667 78.3549 6.7C78.6349 6.98667 79.0883 7.13667 79.7149 7.15V3.38C79.0883 3.39333 78.6349 3.55 78.3549 3.85C78.0816 4.15 77.9449 4.63 77.9449 5.29Z" fill="white"/>
<path d="M71.0286 8.10999C70.1286 8.10999 69.4519 7.86999 68.9986 7.38999C68.5453 6.90999 68.3186 6.19999 68.3186 5.25999C68.3186 4.33333 68.5453 3.62999 68.9986 3.14999C69.4586 2.66999 70.1353 2.42999 71.0286 2.42999C71.8753 2.42999 72.5119 2.65333 72.9386 3.09999C73.3653 3.54666 73.5786 4.20666 73.5786 5.07999C73.5786 5.14666 73.5719 5.22999 73.5586 5.32999C73.5519 5.42999 73.5486 5.48999 73.5486 5.50999H69.4686C69.4953 6.10333 69.6319 6.52999 69.8786 6.78999C70.1319 7.04999 70.5286 7.17999 71.0686 7.17999C71.5153 7.17999 71.8519 7.09999 72.0786 6.93999C72.3053 6.77333 72.4253 6.52666 72.4386 6.19999H73.5486C73.5019 6.82666 73.2653 7.30333 72.8386 7.62999C72.4119 7.94999 71.8086 8.10999 71.0286 8.10999ZM71.0286 3.31999C70.5486 3.31999 70.1853 3.42999 69.9386 3.64999C69.6986 3.86999 69.5486 4.22333 69.4886 4.70999H72.4686C72.4419 4.22333 72.3119 3.86999 72.0786 3.64999C71.8519 3.42999 71.5019 3.31999 71.0286 3.31999Z" fill="white"/>
<path d="M65.9884 7.99999H64.8084V3.51999H62.9984V2.54999H67.7984V3.51999H65.9884V7.99999Z" fill="white"/>
<path d="M60.2766 0.539995V0.369995H61.2366C61.2366 0.929995 61.1032 1.33666 60.8366 1.58999C60.5699 1.83666 60.1366 1.95999 59.5366 1.95999C58.9299 1.95999 58.4899 1.83666 58.2166 1.58999C57.9499 1.33666 57.8166 0.929995 57.8166 0.369995H58.7766V0.539995C58.7766 0.766662 58.8366 0.933328 58.9566 1.03999C59.0832 1.14666 59.2766 1.2 59.5366 1.2C59.7899 1.2 59.9766 1.14666 60.0966 1.03999C60.2166 0.933328 60.2766 0.766662 60.2766 0.539995ZM61.9766 8H60.8466V3.84L58.4866 8H57.0766V2.54999H58.1966V6.74L60.5566 2.54999H61.9766V8Z" fill="white"/>
<path d="M51.8338 4.24999H50.7238C50.7238 3.63666 50.9204 3.17999 51.3138 2.87999C51.7138 2.57999 52.3171 2.42999 53.1237 2.42999C53.9304 2.42999 54.5204 2.58666 54.8937 2.89999C55.2737 3.21333 55.4637 3.69999 55.4637 4.35999V7.99999H54.3138V7.04999C54.1204 7.39666 53.8604 7.65999 53.5337 7.83999C53.2137 8.01999 52.8438 8.10999 52.4238 8.10999C51.8238 8.10999 51.3638 7.96999 51.0438 7.68999C50.7238 7.40333 50.5638 6.99333 50.5638 6.45999C50.5638 5.87333 50.7404 5.43666 51.0938 5.14999C51.4471 4.86333 51.9904 4.71999 52.7238 4.71999H54.3138V4.35999C54.3138 3.97999 54.2171 3.70999 54.0238 3.54999C53.8371 3.38333 53.5204 3.29999 53.0737 3.29999C52.6404 3.29999 52.3237 3.37666 52.1237 3.52999C51.9304 3.67666 51.8338 3.91666 51.8338 4.24999ZM51.7337 6.38999C51.7337 6.67666 51.8104 6.88666 51.9637 7.01999C52.1171 7.14666 52.3604 7.20999 52.6937 7.20999C53.1471 7.20999 53.5304 7.06666 53.8438 6.77999C54.1571 6.49333 54.3138 6.14333 54.3138 5.72999V5.54999H52.7238C52.3771 5.54999 52.1237 5.61666 51.9637 5.74999C51.8104 5.88333 51.7337 6.09666 51.7337 6.38999Z" fill="white"/>
<path d="M48.7717 7.99999H41.8617V2.54999H43.0217V7.02999H44.9317V2.54999H46.1017V7.02999H48.0017V2.54999H49.1717V7.02999H49.8717V9.64999H48.7717V7.99999Z" fill="white"/>
<path d="M37.9427 8.10999C37.0427 8.10999 36.366 7.86999 35.9127 7.38999C35.4593 6.90999 35.2327 6.19999 35.2327 5.25999C35.2327 4.33333 35.4593 3.62999 35.9127 3.14999C36.3727 2.66999 37.0493 2.42999 37.9427 2.42999C38.7893 2.42999 39.426 2.65333 39.8527 3.09999C40.2793 3.54666 40.4927 4.20666 40.4927 5.07999C40.4927 5.14666 40.486 5.22999 40.4727 5.32999C40.466 5.42999 40.4627 5.48999 40.4627 5.50999H36.3827C36.4093 6.10333 36.546 6.52999 36.7927 6.78999C37.046 7.04999 37.4427 7.17999 37.9827 7.17999C38.4293 7.17999 38.766 7.09999 38.9927 6.93999C39.2193 6.77333 39.3393 6.52666 39.3527 6.19999H40.4627C40.416 6.82666 40.1793 7.30333 39.7527 7.62999C39.326 7.94999 38.7227 8.10999 37.9427 8.10999ZM37.9427 3.31999C37.4627 3.31999 37.0993 3.42999 36.8527 3.64999C36.6127 3.86999 36.4627 4.22333 36.4027 4.70999H39.3827C39.356 4.22333 39.226 3.86999 38.9927 3.64999C38.766 3.42999 38.416 3.31999 37.9427 3.31999Z" fill="white"/>
<path d="M28.7334 3.92999V7.99999H27.6234V2.54999H29.1334L30.7634 5.87999L32.3634 2.54999H33.8734V7.99999H32.7534V3.90999L31.3134 6.79999H30.1734L28.7334 3.92999Z" fill="white"/>
<path d="M23.7044 8.10999C22.8044 8.10999 22.1277 7.86999 21.6744 7.38999C21.221 6.90999 20.9944 6.19999 20.9944 5.25999C20.9944 4.33333 21.221 3.62999 21.6744 3.14999C22.1344 2.66999 22.811 2.42999 23.7044 2.42999C24.551 2.42999 25.1877 2.65333 25.6144 3.09999C26.041 3.54666 26.2544 4.20666 26.2544 5.07999C26.2544 5.14666 26.2477 5.22999 26.2344 5.32999C26.2277 5.42999 26.2244 5.48999 26.2244 5.50999H22.1444C22.171 6.10333 22.3077 6.52999 22.5544 6.78999C22.8077 7.04999 23.2044 7.17999 23.7444 7.17999C24.191 7.17999 24.5277 7.09999 24.7544 6.93999C24.981 6.77333 25.101 6.52666 25.1144 6.19999H26.2244C26.1777 6.82666 25.941 7.30333 25.5144 7.62999C25.0877 7.94999 24.4844 8.10999 23.7044 8.10999ZM23.7044 3.31999C23.2244 3.31999 22.861 3.42999 22.6144 3.64999C22.3744 3.86999 22.2244 4.22333 22.1644 4.70999H25.1444C25.1177 4.22333 24.9877 3.86999 24.7544 3.64999C24.5277 3.42999 24.1777 3.31999 23.7044 3.31999Z" fill="white"/>
<path d="M19.9663 5.27999C19.9663 6.19999 19.763 6.90333 19.3563 7.38999C18.9563 7.86999 18.373 8.10999 17.6063 8.10999C17.213 8.10999 16.8563 8.01999 16.5363 7.83999C16.223 7.65999 15.9663 7.39999 15.7663 7.05999V9.99999H14.5863V2.54999H15.7663V3.48999C15.9663 3.14999 16.223 2.88999 16.5363 2.70999C16.8563 2.52333 17.213 2.42999 17.6063 2.42999C18.373 2.42999 18.9563 2.67333 19.3563 3.15999C19.763 3.64666 19.9663 4.35333 19.9663 5.27999ZM15.7663 5.27999C15.7663 5.90666 15.893 6.37666 16.1463 6.68999C16.3997 7.00333 16.7797 7.15999 17.2863 7.15999C17.7797 7.15999 18.1463 7.00666 18.3863 6.69999C18.6263 6.39333 18.7463 5.91999 18.7463 5.27999C18.7463 4.63333 18.6263 4.15666 18.3863 3.84999C18.153 3.53666 17.7863 3.37999 17.2863 3.37999C16.7797 3.37999 16.3997 3.53999 16.1463 3.85999C15.893 4.17333 15.7663 4.64666 15.7663 5.27999Z" fill="white"/>
<path d="M10.6673 8.10999C9.76727 8.10999 9.0906 7.86999 8.63727 7.38999C8.18393 6.90999 7.95727 6.19999 7.95727 5.25999C7.95727 4.33333 8.18393 3.62999 8.63727 3.14999C9.09727 2.66999 9.77393 2.42999 10.6673 2.42999C11.5139 2.42999 12.1506 2.65333 12.5773 3.09999C13.0039 3.54666 13.2173 4.20666 13.2173 5.07999C13.2173 5.14666 13.2106 5.22999 13.1973 5.32999C13.1906 5.42999 13.1873 5.48999 13.1873 5.50999H9.10727C9.13393 6.10333 9.2706 6.52999 9.51727 6.78999C9.7706 7.04999 10.1673 7.17999 10.7073 7.17999C11.1539 7.17999 11.4906 7.09999 11.7173 6.93999C11.9439 6.77333 12.0639 6.52666 12.0773 6.19999H13.1873C13.1406 6.82666 12.9039 7.30333 12.4773 7.62999C12.0506 7.94999 11.4473 8.10999 10.6673 8.10999ZM10.6673 3.31999C10.1873 3.31999 9.82393 3.42999 9.57727 3.64999C9.33727 3.86999 9.18727 4.22333 9.12727 4.70999H12.1073C12.0806 4.22333 11.9506 3.86999 11.7173 3.64999C11.4906 3.42999 11.1406 3.31999 10.6673 3.31999Z" fill="white"/>
<path d="M1.72898 8H0.458984V1H6.44899V8H5.17898V2.04H1.72898V8Z" fill="white"/>
</svg>
