<svg width="128" height="40" viewBox="0 0 128 40" fill="none" xmlns="http://www.w3.org/2000/svg">
<rect width="128" height="40" rx="20" fill="#A0FB3C"/>
<path d="M105.131 20C105.131 21.18 104.834 22.0767 104.241 22.69C103.654 23.3033 102.791 23.61 101.651 23.61C100.511 23.61 99.6444 23.3067 99.0511 22.7C98.4644 22.0867 98.1711 21.19 98.1711 20.01C98.1711 18.83 98.4644 17.9333 99.0511 17.32C99.6444 16.7 100.511 16.39 101.651 16.39C102.791 16.39 103.654 16.6967 104.241 17.31C104.834 17.9233 105.131 18.82 105.131 20ZM99.4811 20.01C99.4811 20.87 99.6611 21.5133 100.021 21.94C100.381 22.3667 100.924 22.58 101.651 22.58C102.384 22.58 102.931 22.3667 103.291 21.94C103.651 21.5133 103.831 20.8667 103.831 20C103.831 19.1333 103.651 18.4867 103.291 18.06C102.931 17.6333 102.384 17.42 101.651 17.42C100.924 17.42 100.381 17.6333 100.021 18.06C99.6611 18.4867 99.4811 19.1367 99.4811 20.01Z" fill="black"/>
<path d="M95.1909 23.5H93.9209V17.54H91.5009V16.5H97.6009V17.54H95.1909V23.5Z" fill="black"/>
<path d="M90.9319 20C90.9319 21.18 90.6352 22.0767 90.0419 22.69C89.4552 23.3033 88.5919 23.61 87.4519 23.61C86.3119 23.61 85.4452 23.3067 84.8519 22.7C84.2652 22.0867 83.9719 21.19 83.9719 20.01C83.9719 18.83 84.2652 17.9333 84.8519 17.32C85.4452 16.7 86.3119 16.39 87.4519 16.39C88.5919 16.39 89.4552 16.6967 90.0419 17.31C90.6352 17.9233 90.9319 18.82 90.9319 20ZM85.2819 20.01C85.2819 20.87 85.4619 21.5133 85.8219 21.94C86.1819 22.3667 86.7252 22.58 87.4519 22.58C88.1852 22.58 88.7319 22.3667 89.0919 21.94C89.4519 21.5133 89.6319 20.8667 89.6319 20C89.6319 19.1333 89.4519 18.4867 89.0919 18.06C88.7319 17.6333 88.1852 17.42 87.4519 17.42C86.7252 17.42 86.1819 17.6333 85.8219 18.06C85.4619 18.4867 85.2819 19.1367 85.2819 20.01Z" fill="black"/>
<path d="M79.7002 23.74H78.4302V22.78C77.3702 22.7733 76.5536 22.5233 75.9802 22.03C75.4069 21.5367 75.1202 20.8333 75.1202 19.92C75.1202 19 75.4102 18.2867 75.9902 17.78C76.5702 17.2733 77.3836 17.02 78.4302 17.02V16.26H79.7002V17.02C80.7536 17.0267 81.5702 17.2833 82.1502 17.79C82.7302 18.2967 83.0202 19.0067 83.0202 19.92C83.0202 20.84 82.7336 21.5467 82.1602 22.04C81.5869 22.5333 80.7669 22.78 79.7002 22.78V23.74ZM76.3202 19.92C76.3202 20.5533 76.4936 21.0233 76.8402 21.33C77.1936 21.63 77.7336 21.78 78.4602 21.78V18.03C77.7269 18.0367 77.1869 18.1933 76.8402 18.5C76.4936 18.8067 76.3202 19.28 76.3202 19.92ZM81.8202 19.92C81.8202 19.2733 81.6469 18.7967 81.3002 18.49C80.9536 18.1833 80.4136 18.03 79.6802 18.03V21.78C80.4136 21.7733 80.9536 21.62 81.3002 21.32C81.6469 21.0133 81.8202 20.5467 81.8202 19.92Z" fill="black"/>
<path d="M70.0101 23.5H66.5701V16.5H67.8401V18.88H70.0101C70.6967 18.88 71.2267 19.0833 71.6001 19.49C71.9734 19.8967 72.1601 20.4733 72.1601 21.22C72.1601 21.9467 71.9734 22.51 71.6001 22.91C71.2267 23.3033 70.6967 23.5 70.0101 23.5ZM70.9201 21.21C70.9201 20.7833 70.8267 20.4633 70.6401 20.25C70.4534 20.03 70.1767 19.92 69.8101 19.92H67.8401V22.46H69.8101C70.1767 22.46 70.4534 22.3567 70.6401 22.15C70.8267 21.9367 70.9201 21.6233 70.9201 21.21Z" fill="black"/>
<path d="M63.0229 23.5H61.7529V17.54H59.3329V16.5H65.4329V17.54H63.0229V23.5Z" fill="black"/>
<path d="M59.835 23.5H58.535L57.935 21.81H54.785L54.175 23.5H52.955L55.515 16.5H57.275L59.835 23.5ZM56.355 17.4L55.145 20.78H57.565L56.355 17.4Z" fill="black"/>
<path d="M48.3088 23.5H47.0388V16.5H50.6688C51.3422 16.5 51.8755 16.7133 52.2688 17.14C52.6622 17.56 52.8588 18.1333 52.8588 18.86C52.8588 19.58 52.6555 20.15 52.2488 20.57C51.8488 20.9833 51.2955 21.19 50.5888 21.19H48.3088V23.5ZM51.5488 18.86C51.5488 18.42 51.4488 18.0867 51.2488 17.86C51.0488 17.6333 50.7522 17.52 50.3588 17.52H48.3088V20.18H50.3588C50.7455 20.18 51.0388 20.07 51.2388 19.85C51.4455 19.6233 51.5488 19.2933 51.5488 18.86Z" fill="black"/>
<path d="M43.5576 23.5H40.0076V16.5H45.1476V17.54H41.2576V19.23H43.5376C44.2109 19.23 44.7242 19.4133 45.0776 19.78C45.4309 20.14 45.6076 20.6633 45.6076 21.35C45.6076 22.0433 45.4309 22.5767 45.0776 22.95C44.7242 23.3167 44.2176 23.5 43.5576 23.5ZM44.3676 21.36C44.3676 21 44.2742 20.7267 44.0876 20.54C43.9076 20.3467 43.6442 20.25 43.2976 20.25H41.2576V22.48H43.2976C43.6442 22.48 43.9076 22.3867 44.0876 22.2C44.2742 22.0067 44.3676 21.7267 44.3676 21.36Z" fill="black"/>
<path d="M38.0224 23.49H36.7524V16.49H38.0224V23.49ZM33.6624 23.5H30.2224V16.5H31.4924V18.88H33.6624C34.3491 18.88 34.8791 19.0833 35.2524 19.49C35.6257 19.8967 35.8124 20.4733 35.8124 21.22C35.8124 21.9467 35.6257 22.51 35.2524 22.91C34.8791 23.3033 34.3491 23.5 33.6624 23.5ZM34.5724 21.21C34.5724 20.7833 34.4791 20.4633 34.2924 20.25C34.1057 20.03 33.8291 19.92 33.4624 19.92H31.4924V22.46H33.4624C33.8291 22.46 34.1057 22.3567 34.2924 22.15C34.4791 21.9367 34.5724 21.6233 34.5724 21.21Z" fill="black"/>
<path d="M26.4989 23.5H22.8689V16.5H26.3789C27.0456 16.5 27.5522 16.6533 27.8989 16.96C28.2522 17.26 28.4289 17.6967 28.4289 18.27C28.4289 18.6767 28.3356 19.0167 28.1489 19.29C27.9689 19.5567 27.6956 19.75 27.3289 19.87C27.7822 19.9767 28.1222 20.1733 28.3489 20.46C28.5756 20.7467 28.6889 21.1267 28.6889 21.6C28.6889 22.22 28.5022 22.6933 28.1289 23.02C27.7556 23.34 27.2122 23.5 26.4989 23.5ZM27.1889 18.49C27.1889 18.1633 27.1056 17.9133 26.9389 17.74C26.7722 17.5667 26.5356 17.48 26.2289 17.48H24.1089V19.47H26.2789C26.5722 19.47 26.7956 19.3867 26.9489 19.22C27.1089 19.0533 27.1889 18.81 27.1889 18.49ZM27.3889 21.52C27.3889 21.1733 27.3022 20.91 27.1289 20.73C26.9556 20.5433 26.7056 20.45 26.3789 20.45H24.1089V22.52H26.3389C26.6789 22.52 26.9389 22.4367 27.1189 22.27C27.2989 22.0967 27.3889 21.8467 27.3889 21.52Z" fill="black"/>
</svg>
