<svg width="128" height="40" viewBox="0 0 128 40" fill="none" xmlns="http://www.w3.org/2000/svg">
<rect width="128" height="40" rx="20" fill="#A0FB3C"/>
<path d="M109.87 20C109.87 21.18 109.574 22.0767 108.98 22.69C108.394 23.3033 107.53 23.61 106.39 23.61C105.25 23.61 104.384 23.3067 103.79 22.7C103.204 22.0867 102.91 21.19 102.91 20.01C102.91 18.83 103.204 17.9333 103.79 17.32C104.384 16.7 105.25 16.39 106.39 16.39C107.53 16.39 108.394 16.6967 108.98 17.31C109.574 17.9233 109.87 18.82 109.87 20ZM104.22 20.01C104.22 20.87 104.4 21.5133 104.76 21.94C105.12 22.3667 105.664 22.58 106.39 22.58C107.124 22.58 107.67 22.3667 108.03 21.94C108.39 21.5133 108.57 20.8667 108.57 20C108.57 19.1333 108.39 18.4867 108.03 18.06C107.67 17.6333 107.124 17.42 106.39 17.42C105.664 17.42 105.12 17.6333 104.76 18.06C104.4 18.4867 104.22 19.1367 104.22 20.01Z" fill="black"/>
<path d="M99.93 23.5H98.66V17.54H96.24V16.5H102.34V17.54H99.93V23.5Z" fill="black"/>
<path d="M95.6711 20C95.6711 21.18 95.3744 22.0767 94.7811 22.69C94.1944 23.3033 93.3311 23.61 92.1911 23.61C91.0511 23.61 90.1844 23.3067 89.5911 22.7C89.0044 22.0867 88.7111 21.19 88.7111 20.01C88.7111 18.83 89.0044 17.9333 89.5911 17.32C90.1844 16.7 91.0511 16.39 92.1911 16.39C93.3311 16.39 94.1944 16.6967 94.7811 17.31C95.3744 17.9233 95.6711 18.82 95.6711 20ZM90.0211 20.01C90.0211 20.87 90.2011 21.5133 90.5611 21.94C90.9211 22.3667 91.4644 22.58 92.1911 22.58C92.9244 22.58 93.4711 22.3667 93.8311 21.94C94.1911 21.5133 94.3711 20.8667 94.3711 20C94.3711 19.1333 94.1911 18.4867 93.8311 18.06C93.4711 17.6333 92.9244 17.42 92.1911 17.42C91.4644 17.42 90.9211 17.6333 90.5611 18.06C90.2011 18.4867 90.0211 19.1367 90.0211 20.01Z" fill="black"/>
<path d="M84.4394 23.74H83.1694V22.78C82.1094 22.7733 81.2928 22.5233 80.7194 22.03C80.1461 21.5367 79.8594 20.8333 79.8594 19.92C79.8594 19 80.1494 18.2867 80.7294 17.78C81.3094 17.2733 82.1228 17.02 83.1694 17.02V16.26H84.4394V17.02C85.4928 17.0267 86.3094 17.2833 86.8894 17.79C87.4694 18.2967 87.7594 19.0067 87.7594 19.92C87.7594 20.84 87.4728 21.5467 86.8994 22.04C86.3261 22.5333 85.5061 22.78 84.4394 22.78V23.74ZM81.0594 19.92C81.0594 20.5533 81.2328 21.0233 81.5794 21.33C81.9328 21.63 82.4728 21.78 83.1994 21.78V18.03C82.4661 18.0367 81.9261 18.1933 81.5794 18.5C81.2328 18.8067 81.0594 19.28 81.0594 19.92ZM86.5594 19.92C86.5594 19.2733 86.3861 18.7967 86.0394 18.49C85.6928 18.1833 85.1528 18.03 84.4194 18.03V21.78C85.1528 21.7733 85.6928 21.62 86.0394 21.32C86.3861 21.0133 86.5594 20.5467 86.5594 19.92Z" fill="black"/>
<path d="M74.7493 23.5H71.3093V16.5H72.5793V18.88H74.7493C75.4359 18.88 75.9659 19.0833 76.3393 19.49C76.7126 19.8967 76.8993 20.4733 76.8993 21.22C76.8993 21.9467 76.7126 22.51 76.3393 22.91C75.9659 23.3033 75.4359 23.5 74.7493 23.5ZM75.6593 21.21C75.6593 20.7833 75.5659 20.4633 75.3793 20.25C75.1926 20.03 74.9159 19.92 74.5493 19.92H72.5793V22.46H74.5493C74.9159 22.46 75.1926 22.3567 75.3793 22.15C75.5659 21.9367 75.6593 21.6233 75.6593 21.21Z" fill="black"/>
<path d="M67.7621 23.5H66.4921V17.54H64.0721V16.5H70.1721V17.54H67.7621V23.5Z" fill="black"/>
<path d="M62.9378 23.5H61.6878V17.76L58.4578 23.5H56.7878V16.5H58.0378V22.26L61.2678 16.5H62.9378V23.5Z" fill="black"/>
<path d="M49.9621 23.5H48.6921V16.5H49.9621V19.37H53.5221V16.5H54.7921V23.5H53.5221V20.41H49.9621V23.5Z" fill="black"/>
<path d="M47.26 23.5H42.11V16.5H47.16V17.54H43.38V19.41H47.02V20.42H43.38V22.46H47.26V23.5Z" fill="black"/>
<path d="M33.8372 23.5H32.6472V16.5H34.4472L36.3972 20.78L38.3172 16.5H40.1072V23.5H38.9172V17.71L37.0472 21.78H35.7372L33.8372 17.73V23.5Z" fill="black"/>
<path d="M31.5566 23.5H30.2566L29.6566 21.81H26.5066L25.8966 23.5H24.6766L27.2366 16.5H28.9966L31.5566 23.5ZM28.0766 17.4L26.8666 20.78H29.2866L28.0766 17.4Z" fill="black"/>
<path d="M22.6697 19.88C23.1364 20 23.4831 20.2 23.7097 20.48C23.9364 20.76 24.0497 21.1267 24.0497 21.58C24.0497 22.2533 23.7964 22.76 23.2897 23.1C22.7897 23.44 22.0431 23.61 21.0497 23.61C20.0497 23.61 19.3131 23.4333 18.8397 23.08C18.3664 22.7267 18.1297 22.1667 18.1297 21.4H19.3397C19.3397 21.8333 19.4731 22.1433 19.7397 22.33C20.0064 22.51 20.4431 22.6 21.0497 22.6C21.6697 22.6 22.1164 22.5167 22.3897 22.35C22.6697 22.1767 22.8097 21.9 22.8097 21.52C22.8097 21.14 22.6897 20.8633 22.4497 20.69C22.2097 20.5167 21.8331 20.43 21.3197 20.43H20.0297V19.43H21.2997C21.7597 19.43 22.1031 19.3467 22.3297 19.18C22.5564 19.0133 22.6697 18.76 22.6697 18.42C22.6697 18.06 22.5464 17.8 22.2997 17.64C22.0531 17.48 21.6531 17.4 21.0997 17.4C20.5131 17.4 20.0864 17.4967 19.8197 17.69C19.5531 17.8767 19.4197 18.18 19.4197 18.6H18.2297C18.2297 17.86 18.4664 17.3067 18.9397 16.94C19.4197 16.5733 20.1397 16.39 21.0997 16.39C22.0464 16.39 22.7497 16.5467 23.2097 16.86C23.6764 17.1733 23.9097 17.6533 23.9097 18.3C23.9097 18.68 23.8064 19.0033 23.5997 19.27C23.3931 19.5367 23.0831 19.74 22.6697 19.88Z" fill="black"/>
</svg>
