<svg width="128" height="40" viewBox="0 0 128 40" fill="none" xmlns="http://www.w3.org/2000/svg">
<rect width="128" height="40" rx="20" fill="white"/>
<path opacity="0.3" d="M109.59 30.02H108.32V24.06H105.9V23.02H112V24.06H109.59V30.02Z" fill="black"/>
<path opacity="0.3" d="M99.9443 30.02H98.6743V23.02H99.9443V25.89H103.504V23.02H104.774V30.02H103.504V26.93H99.9443V30.02Z" fill="black"/>
<path opacity="0.3" d="M97.5837 30.02H96.2837L95.6837 28.33H92.5337L91.9237 30.02H90.7037L93.2637 23.02H95.0237L97.5837 30.02ZM94.1037 23.92L92.8937 27.3H95.3137L94.1037 23.92Z" fill="black"/>
<path opacity="0.3" d="M89.6094 30.02H88.3594V24.28L85.1294 30.02H83.4594V23.02H84.7094V28.78L87.9394 23.02H89.6094V30.02Z" fill="black"/>
<path opacity="0.3" d="M77.5517 30.02H76.2817V23.02H79.9117C80.585 23.02 81.1184 23.2333 81.5117 23.66C81.905 24.08 82.1017 24.6533 82.1017 25.38C82.1017 26.1 81.8984 26.67 81.4917 27.09C81.0917 27.5033 80.5384 27.71 79.8317 27.71H77.5517V30.02ZM80.7917 25.38C80.7917 24.94 80.6917 24.6067 80.4917 24.38C80.2917 24.1533 79.995 24.04 79.6017 24.04H77.5517V26.7H79.6017C79.9884 26.7 80.2817 26.59 80.4817 26.37C80.6884 26.1433 80.7917 25.8133 80.7917 25.38Z" fill="black"/>
<path opacity="0.3" d="M75.1912 30.02H73.8912L73.2912 28.33H70.1412L69.5312 30.02H68.3112L70.8712 23.02H72.6312L75.1912 30.02ZM71.7112 23.92L70.5012 27.3H72.9212L71.7112 23.92Z" fill="black"/>
<path opacity="0.3" d="M65.4977 30.02H61.8677V23.02H65.3777C66.0443 23.02 66.551 23.1733 66.8977 23.48C67.251 23.78 67.4277 24.2167 67.4277 24.79C67.4277 25.1967 67.3343 25.5367 67.1477 25.81C66.9677 26.0767 66.6943 26.27 66.3277 26.39C66.781 26.4967 67.121 26.6933 67.3477 26.98C67.5743 27.2667 67.6877 27.6467 67.6877 28.12C67.6877 28.74 67.501 29.2133 67.1277 29.54C66.7543 29.86 66.211 30.02 65.4977 30.02ZM66.1877 25.01C66.1877 24.6833 66.1043 24.4333 65.9377 24.26C65.771 24.0867 65.5343 24 65.2277 24H63.1077V25.99H65.2777C65.571 25.99 65.7943 25.9067 65.9477 25.74C66.1077 25.5733 66.1877 25.33 66.1877 25.01ZM66.3877 28.04C66.3877 27.6933 66.301 27.43 66.1277 27.25C65.9543 27.0633 65.7043 26.97 65.3777 26.97H63.1077V29.04H65.3377C65.6777 29.04 65.9377 28.9567 66.1177 28.79C66.2977 28.6167 66.3877 28.3667 66.3877 28.04Z" fill="black"/>
<path opacity="0.3" d="M107.542 10.1V9.98H108.502C108.502 10.5467 108.355 10.9533 108.062 11.2C107.775 11.4467 107.305 11.57 106.652 11.57C105.992 11.57 105.518 11.4467 105.232 11.2C104.945 10.9533 104.802 10.5467 104.802 9.98H105.762V10.1C105.762 10.3467 105.832 10.53 105.972 10.65C106.118 10.7633 106.345 10.82 106.652 10.82C106.958 10.82 107.182 10.7633 107.322 10.65C107.468 10.53 107.542 10.3467 107.542 10.1ZM109.722 19.02H108.472V13.28L105.242 19.02H103.572V12.02H104.822V17.78L108.052 12.02H109.722V19.02Z" fill="black"/>
<path opacity="0.3" d="M101.587 19.01H100.317V12.01H101.587V19.01ZM97.2266 19.02H93.7866V12.02H95.0566V14.4H97.2266C97.9133 14.4 98.4433 14.6033 98.8166 15.01C99.1899 15.4167 99.3766 15.9933 99.3766 16.74C99.3766 17.4667 99.1899 18.03 98.8166 18.43C98.4433 18.8233 97.9133 19.02 97.2266 19.02ZM98.1366 16.73C98.1366 16.3033 98.0433 15.9833 97.8566 15.77C97.6699 15.55 97.3933 15.44 97.0266 15.44H95.0566V17.98H97.0266C97.3933 17.98 97.6699 17.8767 97.8566 17.67C98.0433 17.4567 98.1366 17.1433 98.1366 16.73Z" fill="black"/>
<path opacity="0.3" d="M86.9609 19.02H85.6909V12.02H86.9609V14.89H90.5209V12.02H91.7909V19.02H90.5209V15.93H86.9609V19.02Z" fill="black"/>
<path opacity="0.3" d="M77.418 19.02H76.228V12.02H78.028L79.978 16.3L81.898 12.02H83.688V19.02H82.498V13.23L80.628 17.3H79.318L77.418 13.25V19.02Z" fill="black"/>
<path opacity="0.3" d="M74.796 19.02H69.646V12.02H74.696V13.06H70.916V14.93H74.556V15.94H70.916V17.98H74.796V19.02Z" fill="black"/>
<path opacity="0.3" d="M66.0988 19.02H64.8288V13.06H62.4088V12.02H68.5088V13.06H66.0988V19.02Z" fill="black"/>
<circle cx="20" cy="20" r="12" fill="black"/>
<circle cx="20" cy="20" r="15" stroke="#DFDFDF" stroke-width="2"/>
<path d="M45 21.5H52M52 21.5L48.7254 18M52 21.5L48.7254 25" stroke="#DFDFDF" stroke-width="1.5"/>
</svg>
